M48
METRIC,LZ,000.000
;FILE_FORMAT=3:3
;TYPE=PLATED
;Layer: PTH_Through_Via
;EasyEDA v6.5.57, 2026-07-01 10:19:50
;9afaf0bdf17a4b4e94e635eba880ba3c,d0571c7098b8490b8d1055de96b6f153,10
;Gerber Generator version 0.2
;Holesize 1 = 0.306 mm
T01C0.306
;Holesize 2 = 0.310 mm
T02C0.310
%
G05
G90
T01
X011881Y017145
X-001717Y019596
X005150Y015113
X008886Y019808
X008579Y014732
X004642Y012700
X-015503Y021209
X-002597Y018288
X-002168Y005080
X-017653Y019558
X-018923Y000508
X-008693Y015875
X-017272Y016256
X-007663Y012573
T02
X000778Y013012
X-002919Y014282
X-013009Y015239
X-008518Y014224
X-012963Y005080
X-012836Y009017
X-017780Y017653
X-019050Y018796
X-016900Y020447
X-013090Y022860
X-014233Y019939
X-015884Y019812
X-016645Y005080
X019050Y018923
X-010677Y024765
X021209Y015494
X-004708Y022860
X-002422Y024384
X003547Y000254
X-017272Y015367
X-017145Y014478
X-017018Y013589
X-014351Y004348
M30
