G04 Layer: BottomSilkscreenLayer*
G04 EasyEDA v6.5.57, 2026-07-01 10:19:50*
G04 9afaf0bdf17a4b4e94e635eba880ba3c,d0571c7098b8490b8d1055de96b6f153,10*
G04 Gerber Generator version 0.2*
G04 Scale: 100 percent, Rotated: No, Reflected: No *
G04 Dimensions in millimeters *
G04 leading zeros omitted , absolute positions ,4 integer and 5 decimal *
%FSLAX45Y45*%
%MOMM*%

%ADD10C,0.0762*%
%ADD11C,0.1524*%
%ADD12C,0.1501*%
%ADD13C,0.0107*%

%LPD*%
D10*
X553943Y2489200D02*
G01*
X469084Y2489200D01*
X553943Y2489200D02*
G01*
X553943Y2525567D01*
X549902Y2537691D01*
X545861Y2541732D01*
X537781Y2545773D01*
X529699Y2545773D01*
X521616Y2541732D01*
X517575Y2537691D01*
X513534Y2525567D01*
X513534Y2489200D02*
G01*
X513534Y2525567D01*
X509493Y2537691D01*
X505452Y2541732D01*
X497370Y2545773D01*
X485249Y2545773D01*
X477166Y2541732D01*
X473125Y2537691D01*
X469084Y2525567D01*
X469084Y2489200D01*
X553943Y2604770D02*
G01*
X469084Y2572443D01*
X553943Y2604770D02*
G01*
X469084Y2637096D01*
X497370Y2584564D02*
G01*
X497370Y2624975D01*
X553943Y2692054D02*
G01*
X469084Y2692054D01*
X553943Y2663766D02*
G01*
X553943Y2720339D01*
X541820Y2845607D02*
G01*
X469084Y2845607D01*
X505452Y2809239D02*
G01*
X505452Y2881975D01*
D11*
X800963Y-341884D02*
G01*
X800963Y-419862D01*
X795883Y-435355D01*
X785469Y-445770D01*
X769721Y-450850D01*
X759307Y-450850D01*
X743813Y-445770D01*
X733399Y-435355D01*
X728319Y-419862D01*
X728319Y-341884D01*
X631545Y-357378D02*
G01*
X636879Y-346963D01*
X652373Y-341884D01*
X662787Y-341884D01*
X678281Y-346963D01*
X688695Y-362712D01*
X694029Y-388620D01*
X694029Y-414528D01*
X688695Y-435355D01*
X678281Y-445770D01*
X662787Y-450850D01*
X657453Y-450850D01*
X641959Y-445770D01*
X631545Y-435355D01*
X626465Y-419862D01*
X626465Y-414528D01*
X631545Y-399034D01*
X641959Y-388620D01*
X657453Y-383539D01*
X662787Y-383539D01*
X678281Y-388620D01*
X688695Y-399034D01*
X694029Y-414528D01*
D12*
X584200Y-152400D02*
G01*
X-177800Y-152400D01*
X-177800Y-406400D01*
X584200Y-406400D01*
X584200Y-152400D01*
G75*
G01*
X64069Y-406397D02*
G02*
X-35931Y-406397I-50000J0D01*
G75*
G01*
X445069Y-406397D02*
G02*
X345069Y-406397I-50000J0D01*
G75*
G01
X553390Y-203200D02*
G03X553390Y-203200I-19990J0D01*
M02*
