G04 Layer: TopSilkscreenLayer*
G04 EasyEDA v6.5.57, 2026-07-01 10:19:50*
G04 9afaf0bdf17a4b4e94e635eba880ba3c,d0571c7098b8490b8d1055de96b6f153,10*
G04 Gerber Generator version 0.2*
G04 Scale: 100 percent, Rotated: No, Reflected: No *
G04 Dimensions in millimeters *
G04 leading zeros omitted , absolute positions ,4 integer and 5 decimal *
%FSLAX45Y45*%
%MOMM*%

%ADD10C,0.1270*%
%ADD11C,0.0762*%
%ADD12C,0.1016*%
%ADD13C,0.0508*%
%ADD14C,0.2032*%
%ADD15C,0.0134*%
%ADD16C,0.1524*%
%ADD17C,0.2540*%
%ADD18C,0.2030*%
%ADD19C,0.1500*%
%ADD20C,0.1800*%
%ADD21C,0.3000*%

%LPD*%
D10*
X368554Y16261D02*
G01*
X451611Y16261D01*
X410209Y-25394D02*
G01*
X410209Y57663D01*
X687077Y-203456D02*
G01*
X677679Y-194312D01*
X663963Y-189486D01*
X645421Y-189486D01*
X631451Y-194312D01*
X622307Y-203456D01*
X622307Y-212600D01*
X626879Y-221998D01*
X631451Y-226570D01*
X640849Y-231142D01*
X668535Y-240286D01*
X677679Y-245112D01*
X682251Y-249684D01*
X687077Y-258828D01*
X687077Y-272798D01*
X677679Y-281942D01*
X663963Y-286514D01*
X645421Y-286514D01*
X631451Y-281942D01*
X622307Y-272798D01*
D11*
X1376857Y-87629D02*
G01*
X1376857Y-160273D01*
X1340535Y-123952D02*
G01*
X1413179Y-123952D01*
D12*
X2026335Y763270D02*
G01*
X2026335Y641857D01*
X2026335Y763270D02*
G01*
X2078405Y763270D01*
X2095677Y757428D01*
X2101265Y751586D01*
X2107107Y740155D01*
X2107107Y722629D01*
X2101265Y711200D01*
X2095677Y705357D01*
X2078405Y699770D01*
X2026335Y699770D01*
X2145207Y763270D02*
G01*
X2145207Y676655D01*
X2151049Y659129D01*
X2162479Y647700D01*
X2180005Y641857D01*
X2191435Y641857D01*
X2208707Y647700D01*
X2220391Y659129D01*
X2225979Y676655D01*
X2225979Y763270D01*
X2264079Y763270D02*
G01*
X2264079Y641857D01*
X2264079Y763270D02*
G01*
X2310307Y641857D01*
X2356535Y763270D02*
G01*
X2310307Y641857D01*
X2356535Y763270D02*
G01*
X2356535Y641857D01*
X2394635Y763270D02*
G01*
X2394635Y641857D01*
X2394635Y763270D02*
G01*
X2446705Y763270D01*
X2463977Y757428D01*
X2469565Y751586D01*
X2475407Y740155D01*
X2475407Y722629D01*
X2469565Y711200D01*
X2463977Y705357D01*
X2446705Y699770D01*
X2394635Y699770D01*
X-280492Y-168655D02*
G01*
X-291922Y-156971D01*
X-309194Y-151129D01*
X-332308Y-151129D01*
X-349834Y-156971D01*
X-361264Y-168655D01*
X-361264Y-180086D01*
X-355422Y-191770D01*
X-349834Y-197357D01*
X-338150Y-203200D01*
X-303606Y-214629D01*
X-291922Y-220471D01*
X-286334Y-226313D01*
X-280492Y-237744D01*
X-280492Y-255270D01*
X-291922Y-266700D01*
X-309194Y-272542D01*
X-332308Y-272542D01*
X-349834Y-266700D01*
X-361264Y-255270D01*
X-242392Y-151129D02*
G01*
X-242392Y-272542D01*
X-242392Y-151129D02*
G01*
X-167208Y-151129D01*
X-242392Y-209042D02*
G01*
X-196164Y-209042D01*
X-242392Y-272542D02*
G01*
X-167208Y-272542D01*
X-129108Y-151129D02*
G01*
X-129108Y-272542D01*
X-129108Y-151129D02*
G01*
X-48336Y-272542D01*
X-48336Y-151129D02*
G01*
X-48336Y-272542D01*
X70535Y-168655D02*
G01*
X59105Y-156971D01*
X41579Y-151129D01*
X18465Y-151129D01*
X1193Y-156971D01*
X-10236Y-168655D01*
X-10236Y-180086D01*
X-4394Y-191770D01*
X1193Y-197357D01*
X12877Y-203200D01*
X47421Y-214629D01*
X59105Y-220471D01*
X64693Y-226313D01*
X70535Y-237744D01*
X70535Y-255270D01*
X59105Y-266700D01*
X41579Y-272542D01*
X18465Y-272542D01*
X1193Y-266700D01*
X-10236Y-255270D01*
X108635Y-151129D02*
G01*
X108635Y-272542D01*
X108635Y-151129D02*
G01*
X183565Y-151129D01*
X108635Y-209042D02*
G01*
X154863Y-209042D01*
X108635Y-272542D02*
G01*
X183565Y-272542D01*
X-1631264Y-557529D02*
G01*
X-1631264Y-678942D01*
X-1631264Y-557529D02*
G01*
X-1579194Y-557529D01*
X-1561922Y-563371D01*
X-1556334Y-569213D01*
X-1550492Y-580644D01*
X-1550492Y-592328D01*
X-1556334Y-603757D01*
X-1561922Y-609600D01*
X-1579194Y-615442D01*
X-1631264Y-615442D02*
G01*
X-1579194Y-615442D01*
X-1561922Y-621029D01*
X-1556334Y-626871D01*
X-1550492Y-638555D01*
X-1550492Y-655828D01*
X-1556334Y-667257D01*
X-1561922Y-673100D01*
X-1579194Y-678942D01*
X-1631264Y-678942D01*
X-1512392Y-557529D02*
G01*
X-1512392Y-644144D01*
X-1506550Y-661670D01*
X-1495120Y-673100D01*
X-1477594Y-678942D01*
X-1466164Y-678942D01*
X-1448892Y-673100D01*
X-1437208Y-661670D01*
X-1431620Y-644144D01*
X-1431620Y-557529D01*
X-1312494Y-557529D02*
G01*
X-1393520Y-678942D01*
X-1393520Y-557529D02*
G01*
X-1312494Y-557529D01*
X-1393520Y-678942D02*
G01*
X-1312494Y-678942D01*
X1835835Y693928D02*
G01*
X1939721Y693928D01*
X-1237564Y-131571D02*
G01*
X-1133678Y-131571D01*
X-1339164Y2637028D02*
G01*
X-1235278Y2637028D01*
X-1071194Y2688844D02*
G01*
X-1071194Y2584957D01*
X-1123264Y2637028D02*
G01*
X-1019378Y2637028D01*
D13*
X-1690192Y2626613D02*
G01*
X-1684350Y2632455D01*
X-1681556Y2641092D01*
X-1681556Y2652521D01*
X-1684350Y2661157D01*
X-1690192Y2667000D01*
X-1696034Y2667000D01*
X-1701622Y2664205D01*
X-1704670Y2661157D01*
X-1707464Y2655570D01*
X-1713306Y2638044D01*
X-1716100Y2632455D01*
X-1718894Y2629407D01*
X-1724736Y2626613D01*
X-1733372Y2626613D01*
X-1739214Y2632455D01*
X-1742008Y2641092D01*
X-1742008Y2652521D01*
X-1739214Y2661157D01*
X-1733372Y2667000D01*
X-1681556Y2607563D02*
G01*
X-1742008Y2593086D01*
X-1681556Y2578607D02*
G01*
X-1742008Y2593086D01*
X-1681556Y2578607D02*
G01*
X-1742008Y2564129D01*
X-1681556Y2549905D02*
G01*
X-1742008Y2564129D01*
X-1681556Y2530855D02*
G01*
X-1742008Y2530855D01*
X-1681556Y2530855D02*
G01*
X-1681556Y2510536D01*
X-1684350Y2501900D01*
X-1690192Y2496057D01*
X-1696034Y2493263D01*
X-1704670Y2490470D01*
X-1718894Y2490470D01*
X-1727784Y2493263D01*
X-1733372Y2496057D01*
X-1739214Y2501900D01*
X-1742008Y2510536D01*
X-1742008Y2530855D01*
X-1681556Y2471420D02*
G01*
X-1742008Y2471420D01*
X-1681556Y2434844D02*
G01*
X-1684350Y2440686D01*
X-1690192Y2446528D01*
X-1696034Y2449321D01*
X-1704670Y2452370D01*
X-1718894Y2452370D01*
X-1727784Y2449321D01*
X-1733372Y2446528D01*
X-1739214Y2440686D01*
X-1742008Y2434844D01*
X-1742008Y2423413D01*
X-1739214Y2417571D01*
X-1733372Y2411729D01*
X-1727784Y2408936D01*
X-1718894Y2406142D01*
X-1704670Y2406142D01*
X-1696034Y2408936D01*
X-1690192Y2411729D01*
X-1684350Y2417571D01*
X-1681556Y2423413D01*
X-1681556Y2434844D01*
X-1480134Y2636520D02*
G01*
X-1474292Y2639313D01*
X-1468450Y2645155D01*
X-1465656Y2650744D01*
X-1465656Y2662428D01*
X-1468450Y2668270D01*
X-1474292Y2673857D01*
X-1480134Y2676905D01*
X-1488770Y2679700D01*
X-1502994Y2679700D01*
X-1511884Y2676905D01*
X-1517472Y2673857D01*
X-1523314Y2668270D01*
X-1526108Y2662428D01*
X-1526108Y2650744D01*
X-1523314Y2645155D01*
X-1517472Y2639313D01*
X-1511884Y2636520D01*
X-1465656Y2617470D02*
G01*
X-1526108Y2617470D01*
X-1526108Y2617470D02*
G01*
X-1526108Y2582671D01*
X-1465656Y2563621D02*
G01*
X-1526108Y2563621D01*
X-1465656Y2523236D02*
G01*
X-1506042Y2563621D01*
X-1491564Y2549144D02*
G01*
X-1526108Y2523236D01*
D14*
X2082825Y2265934D02*
G01*
X2248941Y2265934D01*
X2165883Y2577592D02*
G01*
X2165883Y2411476D01*
X2082825Y2494534D02*
G01*
X2248941Y2494534D01*
D16*
X2107184Y1587500D02*
G01*
X2216150Y1587500D01*
X2107184Y1660144D02*
G01*
X2216150Y1660144D01*
X2159000Y1587500D02*
G01*
X2159000Y1660144D01*
X2133092Y1699768D02*
G01*
X2128011Y1699768D01*
X2117597Y1704847D01*
X2112263Y1710181D01*
X2107184Y1720595D01*
X2107184Y1741170D01*
X2112263Y1751584D01*
X2117597Y1756918D01*
X2128011Y1761997D01*
X2138425Y1761997D01*
X2148840Y1756918D01*
X2164334Y1746504D01*
X2216150Y1694434D01*
X2216150Y1767331D01*
X25400Y100584D02*
G01*
X25400Y209550D01*
X25400Y100584D02*
G01*
X-21336Y100584D01*
X-36829Y105663D01*
X-42163Y110997D01*
X-47243Y121412D01*
X-47243Y131826D01*
X-42163Y142239D01*
X-36829Y147320D01*
X-21336Y152400D01*
X25400Y152400D01*
X-10922Y152400D02*
G01*
X-47243Y209550D01*
X-81534Y121412D02*
G01*
X-91947Y116078D01*
X-107695Y100584D01*
X-107695Y209550D01*
X-147065Y126492D02*
G01*
X-147065Y121412D01*
X-152400Y110997D01*
X-157479Y105663D01*
X-167893Y100584D01*
X-188722Y100584D01*
X-199136Y105663D01*
X-204215Y110997D01*
X-209550Y121412D01*
X-209550Y131826D01*
X-204215Y142239D01*
X-193802Y157734D01*
X-141986Y209550D01*
X-214629Y209550D01*
X-1194968Y118122D02*
G01*
X-1194968Y9156D01*
X-1194968Y118122D02*
G01*
X-1148232Y118122D01*
X-1132738Y113042D01*
X-1127404Y107708D01*
X-1122324Y97294D01*
X-1122324Y86880D01*
X-1127404Y76466D01*
X-1132738Y71386D01*
X-1148232Y66306D01*
X-1194968Y66306D02*
G01*
X-1148232Y66306D01*
X-1132738Y60972D01*
X-1127404Y55892D01*
X-1122324Y45478D01*
X-1122324Y29730D01*
X-1127404Y19316D01*
X-1132738Y14236D01*
X-1148232Y9156D01*
X-1194968Y9156D01*
X-1088034Y118122D02*
G01*
X-1088034Y40144D01*
X-1082700Y24650D01*
X-1072286Y14236D01*
X-1056792Y9156D01*
X-1046378Y9156D01*
X-1030884Y14236D01*
X-1020470Y24650D01*
X-1015136Y40144D01*
X-1015136Y118122D01*
X-908202Y118122D02*
G01*
X-980846Y9156D01*
X-980846Y118122D02*
G01*
X-908202Y118122D01*
X-980846Y9156D02*
G01*
X-908202Y9156D01*
X-801268Y118122D02*
G01*
X-873912Y9156D01*
X-873912Y118122D02*
G01*
X-801268Y118122D01*
X-873912Y9156D02*
G01*
X-801268Y9156D01*
X-766978Y118122D02*
G01*
X-766978Y9156D01*
X-766978Y118122D02*
G01*
X-699414Y118122D01*
X-766978Y66306D02*
G01*
X-725322Y66306D01*
X-766978Y9156D02*
G01*
X-699414Y9156D01*
X-665124Y118122D02*
G01*
X-665124Y9156D01*
X-665124Y118122D02*
G01*
X-618388Y118122D01*
X-602640Y113042D01*
X-597560Y107708D01*
X-592226Y97294D01*
X-592226Y86880D01*
X-597560Y76466D01*
X-602640Y71386D01*
X-618388Y66306D01*
X-665124Y66306D01*
X-628548Y66306D02*
G01*
X-592226Y9156D01*
X-557936Y97294D02*
G01*
X-547522Y102628D01*
X-532028Y118122D01*
X-532028Y9156D01*
D14*
X-1306220Y-344411D02*
G01*
X-1306220Y-426453D01*
X-1347114Y-385559D02*
G01*
X-1265326Y-385559D01*
X-1118514Y-385559D02*
G01*
X-1036726Y-385559D01*
D16*
X401909Y3436137D02*
G01*
X396575Y3446551D01*
X386161Y3456965D01*
X376001Y3462045D01*
X355173Y3462045D01*
X344759Y3456965D01*
X334345Y3446551D01*
X329011Y3436137D01*
X323931Y3420389D01*
X323931Y3394481D01*
X329011Y3378987D01*
X334345Y3368573D01*
X344759Y3358159D01*
X355173Y3353079D01*
X376001Y3353079D01*
X386161Y3358159D01*
X396575Y3368573D01*
X401909Y3378987D01*
X436199Y3462045D02*
G01*
X436199Y3353079D01*
X436199Y3462045D02*
G01*
X508843Y3353079D01*
X508843Y3462045D02*
G01*
X508843Y3353079D01*
X543133Y3441217D02*
G01*
X553547Y3446551D01*
X569041Y3462045D01*
X569041Y3353079D01*
X3041573Y117927D02*
G01*
X3051987Y123261D01*
X3062401Y133675D01*
X3067481Y143835D01*
X3067481Y164663D01*
X3062401Y175077D01*
X3051987Y185491D01*
X3041573Y190825D01*
X3025825Y195905D01*
X2999917Y195905D01*
X2984423Y190825D01*
X2974009Y185491D01*
X2963595Y175077D01*
X2958515Y164663D01*
X2958515Y143835D01*
X2963595Y133675D01*
X2974009Y123261D01*
X2984423Y117927D01*
X3067481Y83637D02*
G01*
X2958515Y83637D01*
X3067481Y83637D02*
G01*
X2958515Y10993D01*
X3067481Y10993D02*
G01*
X2958515Y10993D01*
X3041573Y-28630D02*
G01*
X3046653Y-28630D01*
X3057067Y-33710D01*
X3062401Y-39044D01*
X3067481Y-49204D01*
X3067481Y-70032D01*
X3062401Y-80446D01*
X3057067Y-85780D01*
X3046653Y-90860D01*
X3036239Y-90860D01*
X3025825Y-85780D01*
X3010331Y-75366D01*
X2958515Y-23296D01*
X2958515Y-96194D01*
X-264007Y2465578D02*
G01*
X-253593Y2455163D01*
X-238099Y2450084D01*
X-217271Y2450084D01*
X-201777Y2455163D01*
X-191363Y2465578D01*
X-191363Y2475992D01*
X-196443Y2486405D01*
X-201777Y2491739D01*
X-212191Y2496820D01*
X-243433Y2507234D01*
X-253593Y2512313D01*
X-258927Y2517647D01*
X-264007Y2528062D01*
X-264007Y2543555D01*
X-253593Y2553970D01*
X-238099Y2559050D01*
X-217271Y2559050D01*
X-201777Y2553970D01*
X-191363Y2543555D01*
X-298297Y2450084D02*
G01*
X-324459Y2559050D01*
X-350367Y2450084D02*
G01*
X-324459Y2559050D01*
X-350367Y2450084D02*
G01*
X-376275Y2559050D01*
X-402183Y2450084D02*
G01*
X-376275Y2559050D01*
X-436473Y2470912D02*
G01*
X-446887Y2465578D01*
X-462635Y2450084D01*
X-462635Y2559050D01*
X-1410563Y2373884D02*
G01*
X-1410563Y2482850D01*
X-1410563Y2373884D02*
G01*
X-1457299Y2373884D01*
X-1472793Y2378963D01*
X-1478127Y2384297D01*
X-1483207Y2394712D01*
X-1483207Y2405126D01*
X-1478127Y2415539D01*
X-1472793Y2420620D01*
X-1457299Y2425700D01*
X-1410563Y2425700D01*
X-1446885Y2425700D02*
G01*
X-1483207Y2482850D01*
X-1517497Y2394712D02*
G01*
X-1527911Y2389378D01*
X-1543659Y2373884D01*
X-1543659Y2482850D01*
X-1577949Y2394712D02*
G01*
X-1588363Y2389378D01*
X-1603857Y2373884D01*
X-1603857Y2482850D01*
X-2134107Y1665478D02*
G01*
X-2144521Y1660144D01*
X-2154936Y1649729D01*
X-2160015Y1639570D01*
X-2160015Y1618742D01*
X-2154936Y1608328D01*
X-2144521Y1597913D01*
X-2134107Y1592579D01*
X-2118360Y1587500D01*
X-2092452Y1587500D01*
X-2076957Y1592579D01*
X-2066544Y1597913D01*
X-2056129Y1608328D01*
X-2051050Y1618742D01*
X-2051050Y1639570D01*
X-2056129Y1649729D01*
X-2066544Y1660144D01*
X-2076957Y1665478D01*
X-2160015Y1761997D02*
G01*
X-2160015Y1710181D01*
X-2113279Y1704847D01*
X-2118360Y1710181D01*
X-2123694Y1725676D01*
X-2123694Y1741170D01*
X-2118360Y1756918D01*
X-2108200Y1767331D01*
X-2092452Y1772412D01*
X-2082037Y1772412D01*
X-2066544Y1767331D01*
X-2056129Y1756918D01*
X-2051050Y1741170D01*
X-2051050Y1725676D01*
X-2056129Y1710181D01*
X-2061210Y1704847D01*
X-2071623Y1699768D01*
X1633651Y533400D02*
G01*
X1524685Y533400D01*
X1633651Y533400D02*
G01*
X1633651Y497078D01*
X1628571Y481329D01*
X1618157Y471170D01*
X1607743Y465836D01*
X1591995Y460755D01*
X1566087Y460755D01*
X1550593Y465836D01*
X1540179Y471170D01*
X1529765Y481329D01*
X1524685Y497078D01*
X1524685Y533400D01*
X1612823Y426465D02*
G01*
X1618157Y416052D01*
X1633651Y400304D01*
X1524685Y400304D01*
X-1850262Y2704084D02*
G01*
X-1850262Y2813050D01*
X-1922906Y2704084D02*
G01*
X-1922906Y2813050D01*
X-1850262Y2755900D02*
G01*
X-1922906Y2755900D01*
X-1957196Y2724912D02*
G01*
X-1967611Y2719578D01*
X-1983359Y2704084D01*
X-1983359Y2813050D01*
X-2234793Y1677415D02*
G01*
X-2234793Y1594357D01*
X-2240127Y1578610D01*
X-2245207Y1573529D01*
X-2255621Y1568450D01*
X-2266035Y1568450D01*
X-2276449Y1573529D01*
X-2281783Y1578610D01*
X-2286863Y1594357D01*
X-2286863Y1604771D01*
X-2200503Y1656587D02*
G01*
X-2190343Y1661921D01*
X-2174595Y1677415D01*
X-2174595Y1568450D01*
X-1845894Y2274315D02*
G01*
X-1845894Y2191257D01*
X-1851228Y2175510D01*
X-1856308Y2170429D01*
X-1866722Y2165350D01*
X-1877136Y2165350D01*
X-1887550Y2170429D01*
X-1892884Y2175510D01*
X-1897964Y2191257D01*
X-1897964Y2201671D01*
X-1806524Y2248407D02*
G01*
X-1806524Y2253487D01*
X-1801444Y2263902D01*
X-1796110Y2269236D01*
X-1785696Y2274315D01*
X-1764868Y2274315D01*
X-1754454Y2269236D01*
X-1749374Y2263902D01*
X-1744294Y2253487D01*
X-1744294Y2243073D01*
X-1749374Y2232660D01*
X-1759788Y2217165D01*
X-1811604Y2165350D01*
X-1738960Y2165350D01*
X1815236Y1474215D02*
G01*
X1815236Y1365250D01*
X1815236Y1365250D02*
G01*
X1877466Y1365250D01*
X1911756Y1474215D02*
G01*
X1911756Y1365250D01*
X1911756Y1474215D02*
G01*
X1979320Y1474215D01*
X1911756Y1422400D02*
G01*
X1953412Y1422400D01*
X1911756Y1365250D02*
G01*
X1979320Y1365250D01*
X2013610Y1474215D02*
G01*
X2013610Y1365250D01*
X2013610Y1474215D02*
G01*
X2050186Y1474215D01*
X2065680Y1469136D01*
X2076094Y1458721D01*
X2081174Y1448307D01*
X2086508Y1432560D01*
X2086508Y1406652D01*
X2081174Y1391157D01*
X2076094Y1380744D01*
X2065680Y1370329D01*
X2050186Y1365250D01*
X2013610Y1365250D01*
X2120798Y1453387D02*
G01*
X2131212Y1458721D01*
X2146706Y1474215D01*
X2146706Y1365250D01*
X1878736Y940810D02*
G01*
X1878736Y831844D01*
X1878736Y831844D02*
G01*
X1940966Y831844D01*
X1975256Y940810D02*
G01*
X1975256Y831844D01*
X1975256Y940810D02*
G01*
X2042820Y940810D01*
X1975256Y888994D02*
G01*
X2016912Y888994D01*
X1975256Y831844D02*
G01*
X2042820Y831844D01*
X2077110Y940810D02*
G01*
X2077110Y831844D01*
X2077110Y940810D02*
G01*
X2113686Y940810D01*
X2129180Y935730D01*
X2139594Y925316D01*
X2144674Y914902D01*
X2150008Y899154D01*
X2150008Y873246D01*
X2144674Y857752D01*
X2139594Y847338D01*
X2129180Y836924D01*
X2113686Y831844D01*
X2077110Y831844D01*
X2189378Y914902D02*
G01*
X2189378Y919982D01*
X2194712Y930396D01*
X2199792Y935730D01*
X2210206Y940810D01*
X2231034Y940810D01*
X2241448Y935730D01*
X2246528Y930396D01*
X2251862Y919982D01*
X2251862Y909568D01*
X2246528Y899154D01*
X2236114Y883660D01*
X2184298Y831844D01*
X2256942Y831844D01*
X1569135Y1436115D02*
G01*
X1569135Y1327150D01*
X1569135Y1436115D02*
G01*
X1615871Y1436115D01*
X1631365Y1431036D01*
X1636699Y1425702D01*
X1641779Y1415287D01*
X1641779Y1404873D01*
X1636699Y1394460D01*
X1631365Y1389379D01*
X1615871Y1384300D01*
X1569135Y1384300D01*
X1605457Y1384300D02*
G01*
X1641779Y1327150D01*
X1676069Y1415287D02*
G01*
X1686483Y1420621D01*
X1702231Y1436115D01*
X1702231Y1327150D01*
X-779348Y50800D02*
G01*
X-888314Y50800D01*
X-779348Y50800D02*
G01*
X-779348Y4063D01*
X-784428Y-11429D01*
X-789762Y-16763D01*
X-800176Y-21844D01*
X-810590Y-21844D01*
X-821004Y-16763D01*
X-826084Y-11429D01*
X-831164Y4063D01*
X-831164Y50800D01*
X-831164Y14478D02*
G01*
X-888314Y-21844D01*
X-794842Y-118618D02*
G01*
X-784428Y-113284D01*
X-779348Y-97789D01*
X-779348Y-87376D01*
X-784428Y-71881D01*
X-800176Y-61468D01*
X-826084Y-56134D01*
X-851992Y-56134D01*
X-872820Y-61468D01*
X-883234Y-71881D01*
X-888314Y-87376D01*
X-888314Y-92710D01*
X-883234Y-108204D01*
X-872820Y-118618D01*
X-857326Y-123697D01*
X-851992Y-123697D01*
X-836498Y-118618D01*
X-826084Y-108204D01*
X-821004Y-92710D01*
X-821004Y-87376D01*
X-826084Y-71881D01*
X-836498Y-61468D01*
X-851992Y-56134D01*
X-2201748Y609600D02*
G01*
X-2310714Y609600D01*
X-2201748Y609600D02*
G01*
X-2201748Y562863D01*
X-2206828Y547370D01*
X-2212162Y542036D01*
X-2222576Y536955D01*
X-2232990Y536955D01*
X-2243404Y542036D01*
X-2248484Y547370D01*
X-2253564Y562863D01*
X-2253564Y609600D01*
X-2253564Y573278D02*
G01*
X-2310714Y536955D01*
X-2201748Y502665D02*
G01*
X-2310714Y502665D01*
X-2201748Y502665D02*
G01*
X-2201748Y435102D01*
X-2253564Y502665D02*
G01*
X-2253564Y461010D01*
X-2222576Y400812D02*
G01*
X-2217242Y390397D01*
X-2201748Y374650D01*
X-2310714Y374650D01*
X1010335Y1537715D02*
G01*
X1010335Y1459737D01*
X1015415Y1444244D01*
X1025829Y1433829D01*
X1041577Y1428750D01*
X1051991Y1428750D01*
X1067485Y1433829D01*
X1077899Y1444244D01*
X1082979Y1459737D01*
X1082979Y1537715D01*
X1127683Y1537715D02*
G01*
X1184833Y1537715D01*
X1153845Y1496060D01*
X1169339Y1496060D01*
X1179753Y1490979D01*
X1184833Y1485900D01*
X1190167Y1470152D01*
X1190167Y1459737D01*
X1184833Y1444244D01*
X1174419Y1433829D01*
X1158925Y1428750D01*
X1143431Y1428750D01*
X1127683Y1433829D01*
X1122603Y1438910D01*
X1117269Y1449323D01*
X242996Y1308100D02*
G01*
X165018Y1308100D01*
X149524Y1303020D01*
X139110Y1292605D01*
X134030Y1276857D01*
X134030Y1266444D01*
X139110Y1250950D01*
X149524Y1240536D01*
X165018Y1235455D01*
X242996Y1235455D01*
X242996Y1138681D02*
G01*
X242996Y1190752D01*
X196260Y1195831D01*
X201340Y1190752D01*
X206674Y1175004D01*
X206674Y1159510D01*
X201340Y1144015D01*
X191180Y1133602D01*
X175432Y1128268D01*
X165018Y1128268D01*
X149524Y1133602D01*
X139110Y1144015D01*
X134030Y1159510D01*
X134030Y1175004D01*
X139110Y1190752D01*
X144190Y1195831D01*
X154604Y1201165D01*
X109651Y2146300D02*
G01*
X31673Y2146300D01*
X16179Y2141220D01*
X5765Y2130805D01*
X685Y2115057D01*
X685Y2104644D01*
X5765Y2089150D01*
X16179Y2078736D01*
X31673Y2073655D01*
X109651Y2073655D01*
X73329Y1971802D02*
G01*
X57835Y1976881D01*
X47421Y1987295D01*
X42087Y2002789D01*
X42087Y2008123D01*
X47421Y2023618D01*
X57835Y2034031D01*
X73329Y2039365D01*
X78409Y2039365D01*
X94157Y2034031D01*
X104571Y2023618D01*
X109651Y2008123D01*
X109651Y2002789D01*
X104571Y1987295D01*
X94157Y1976881D01*
X73329Y1971802D01*
X47421Y1971802D01*
X21259Y1976881D01*
X5765Y1987295D01*
X685Y2002789D01*
X685Y2013204D01*
X5765Y2028952D01*
X16179Y2034031D01*
X-826363Y2160015D02*
G01*
X-753719Y2051050D01*
X-753719Y2160015D02*
G01*
X-826363Y2051050D01*
X-719429Y2139187D02*
G01*
X-709015Y2144521D01*
X-693267Y2160015D01*
X-693267Y2051050D01*
X-1111580Y127000D02*
G01*
X-1002614Y199644D01*
X-1111580Y199644D02*
G01*
X-1002614Y127000D01*
X-1085672Y239268D02*
G01*
X-1090752Y239268D01*
X-1101166Y244347D01*
X-1106500Y249681D01*
X-1111580Y260095D01*
X-1111580Y280670D01*
X-1106500Y291084D01*
X-1101166Y296418D01*
X-1090752Y301497D01*
X-1080338Y301497D01*
X-1069924Y296418D01*
X-1054430Y286004D01*
X-1002614Y233934D01*
X-1002614Y306831D01*
X-614756Y2157221D02*
G01*
X-604342Y2162555D01*
X-593928Y2172970D01*
X-588848Y2183129D01*
X-588848Y2203957D01*
X-593928Y2214371D01*
X-604342Y2224786D01*
X-614756Y2230120D01*
X-630504Y2235200D01*
X-656412Y2235200D01*
X-671906Y2230120D01*
X-682320Y2224786D01*
X-692734Y2214371D01*
X-697814Y2203957D01*
X-697814Y2183129D01*
X-692734Y2172970D01*
X-682320Y2162555D01*
X-671906Y2157221D01*
X-588848Y2071115D02*
G01*
X-661492Y2122931D01*
X-661492Y2044954D01*
X-588848Y2071115D02*
G01*
X-697814Y2071115D01*
X106578Y953515D02*
G01*
X96164Y948436D01*
X85750Y938021D01*
X80416Y927607D01*
X75336Y911860D01*
X75336Y885952D01*
X80416Y870457D01*
X85750Y860044D01*
X96164Y849629D01*
X106578Y844550D01*
X127406Y844550D01*
X137566Y849629D01*
X147980Y860044D01*
X153314Y870457D01*
X158394Y885952D01*
X158394Y911860D01*
X153314Y927607D01*
X147980Y938021D01*
X137566Y948436D01*
X127406Y953515D01*
X106578Y953515D01*
X122072Y865123D02*
G01*
X153314Y834136D01*
X192684Y932687D02*
G01*
X203098Y938021D01*
X218846Y953515D01*
X218846Y844550D01*
X1556435Y966292D02*
G01*
X1556435Y857072D01*
X1556435Y966292D02*
G01*
X1603171Y966292D01*
X1618665Y960958D01*
X1623999Y955878D01*
X1629079Y945464D01*
X1629079Y935050D01*
X1623999Y924636D01*
X1618665Y919556D01*
X1603171Y914222D01*
X1556435Y914222D01*
X1592757Y914222D02*
G01*
X1629079Y857072D01*
X1715439Y966292D02*
G01*
X1663369Y893394D01*
X1741347Y893394D01*
X1715439Y966292D02*
G01*
X1715439Y857072D01*
X997635Y191515D02*
G01*
X997635Y82550D01*
X997635Y191515D02*
G01*
X1044371Y191515D01*
X1059865Y186436D01*
X1065199Y181102D01*
X1070279Y170687D01*
X1070279Y160273D01*
X1065199Y149860D01*
X1059865Y144779D01*
X1044371Y139700D01*
X997635Y139700D01*
X1033957Y139700D02*
G01*
X1070279Y82550D01*
X1167053Y191515D02*
G01*
X1114983Y191515D01*
X1109903Y144779D01*
X1114983Y149860D01*
X1130731Y155194D01*
X1146225Y155194D01*
X1161719Y149860D01*
X1172133Y139700D01*
X1177467Y123952D01*
X1177467Y113537D01*
X1172133Y98044D01*
X1161719Y87629D01*
X1146225Y82550D01*
X1130731Y82550D01*
X1114983Y87629D01*
X1109903Y92710D01*
X1104569Y103123D01*
X-818464Y1802384D02*
G01*
X-818464Y1880362D01*
X-823544Y1895855D01*
X-833958Y1906270D01*
X-849706Y1911350D01*
X-860120Y1911350D01*
X-875614Y1906270D01*
X-886028Y1895855D01*
X-891108Y1880362D01*
X-891108Y1802384D01*
X-925398Y1823212D02*
G01*
X-935812Y1817878D01*
X-951560Y1802384D01*
X-951560Y1911350D01*
X-1560151Y635007D02*
G01*
X-1638129Y635007D01*
X-1653623Y629927D01*
X-1664037Y619513D01*
X-1669117Y603765D01*
X-1669117Y593351D01*
X-1664037Y577857D01*
X-1653623Y567443D01*
X-1638129Y562363D01*
X-1560151Y562363D01*
X-1586059Y522739D02*
G01*
X-1580979Y522739D01*
X-1570565Y517659D01*
X-1565231Y512325D01*
X-1560151Y501911D01*
X-1560151Y481337D01*
X-1565231Y470923D01*
X-1570565Y465589D01*
X-1580979Y460509D01*
X-1591393Y460509D01*
X-1601807Y465589D01*
X-1617301Y476003D01*
X-1669117Y528073D01*
X-1669117Y455175D01*
X1885619Y2628900D02*
G01*
X1963597Y2628900D01*
X1979091Y2633979D01*
X1989505Y2644394D01*
X1994585Y2660142D01*
X1994585Y2670555D01*
X1989505Y2686050D01*
X1979091Y2696463D01*
X1963597Y2701544D01*
X1885619Y2701544D01*
X1901113Y2808731D02*
G01*
X1890699Y2798318D01*
X1885619Y2782570D01*
X1885619Y2761995D01*
X1890699Y2746247D01*
X1901113Y2735834D01*
X1911527Y2735834D01*
X1921941Y2741168D01*
X1927275Y2746247D01*
X1932355Y2756662D01*
X1942769Y2787904D01*
X1947849Y2798318D01*
X1953183Y2803397D01*
X1963597Y2808731D01*
X1979091Y2808731D01*
X1989505Y2798318D01*
X1994585Y2782570D01*
X1994585Y2761995D01*
X1989505Y2746247D01*
X1979091Y2735834D01*
X1885619Y2843021D02*
G01*
X1994585Y2843021D01*
X1885619Y2843021D02*
G01*
X1885619Y2889757D01*
X1890699Y2905252D01*
X1896033Y2910586D01*
X1906447Y2915665D01*
X1916861Y2915665D01*
X1927275Y2910586D01*
X1932355Y2905252D01*
X1937435Y2889757D01*
X1937435Y2843021D02*
G01*
X1937435Y2889757D01*
X1942769Y2905252D01*
X1947849Y2910586D01*
X1958263Y2915665D01*
X1974011Y2915665D01*
X1984425Y2910586D01*
X1989505Y2905252D01*
X1994585Y2889757D01*
X1994585Y2843021D01*
X1906447Y2949955D02*
G01*
X1901113Y2960370D01*
X1885619Y2975863D01*
X1994585Y2975863D01*
X-93548Y1320800D02*
G01*
X-202514Y1320800D01*
X-93548Y1320800D02*
G01*
X-93548Y1274063D01*
X-98628Y1258570D01*
X-103962Y1253236D01*
X-114376Y1248155D01*
X-124790Y1248155D01*
X-135204Y1253236D01*
X-140284Y1258570D01*
X-145364Y1274063D01*
X-145364Y1320800D01*
X-145364Y1284478D02*
G01*
X-202514Y1248155D01*
X-119456Y1208531D02*
G01*
X-114376Y1208531D01*
X-103962Y1203452D01*
X-98628Y1198118D01*
X-93548Y1187704D01*
X-93548Y1167129D01*
X-98628Y1156715D01*
X-103962Y1151381D01*
X-114376Y1146302D01*
X-124790Y1146302D01*
X-135204Y1151381D01*
X-150698Y1161795D01*
X-202514Y1213865D01*
X-202514Y1140968D01*
X552119Y1320800D02*
G01*
X661085Y1320800D01*
X552119Y1320800D02*
G01*
X552119Y1367536D01*
X557199Y1383029D01*
X562533Y1388363D01*
X572947Y1393444D01*
X583361Y1393444D01*
X593775Y1388363D01*
X598855Y1383029D01*
X603935Y1367536D01*
X603935Y1320800D01*
X603935Y1357121D02*
G01*
X661085Y1393444D01*
X552119Y1438147D02*
G01*
X552119Y1495297D01*
X593775Y1464310D01*
X593775Y1479804D01*
X598855Y1490218D01*
X603935Y1495297D01*
X619683Y1500631D01*
X630097Y1500631D01*
X645591Y1495297D01*
X656005Y1484884D01*
X661085Y1469389D01*
X661085Y1453895D01*
X656005Y1438147D01*
X650925Y1433068D01*
X640511Y1427734D01*
X720013Y572007D02*
G01*
X714679Y582421D01*
X704265Y592836D01*
X694105Y597915D01*
X673277Y597915D01*
X662863Y592836D01*
X652449Y582421D01*
X647115Y572007D01*
X642035Y556260D01*
X642035Y530352D01*
X647115Y514857D01*
X652449Y504444D01*
X662863Y494029D01*
X673277Y488950D01*
X694105Y488950D01*
X704265Y494029D01*
X714679Y504444D01*
X720013Y514857D01*
X754303Y577087D02*
G01*
X764717Y582421D01*
X780211Y597915D01*
X780211Y488950D01*
X819835Y572007D02*
G01*
X819835Y577087D01*
X824915Y587502D01*
X829995Y592836D01*
X840409Y597915D01*
X861237Y597915D01*
X871651Y592836D01*
X876985Y587502D01*
X882065Y577087D01*
X882065Y566673D01*
X876985Y556260D01*
X866571Y540765D01*
X814501Y488950D01*
X887145Y488950D01*
X77388Y1242821D02*
G01*
X87802Y1248155D01*
X98216Y1258570D01*
X103296Y1268729D01*
X103296Y1289557D01*
X98216Y1299971D01*
X87802Y1310386D01*
X77388Y1315720D01*
X61640Y1320800D01*
X35732Y1320800D01*
X20238Y1315720D01*
X9824Y1310386D01*
X-589Y1299971D01*
X-5669Y1289557D01*
X-5669Y1268729D01*
X-589Y1258570D01*
X9824Y1248155D01*
X20238Y1242821D01*
X82468Y1208531D02*
G01*
X87802Y1198118D01*
X103296Y1182623D01*
X-5669Y1182623D01*
X103296Y1137920D02*
G01*
X103296Y1080770D01*
X61640Y1112012D01*
X61640Y1096263D01*
X56560Y1085850D01*
X51480Y1080770D01*
X35732Y1075689D01*
X25318Y1075689D01*
X9824Y1080770D01*
X-589Y1091184D01*
X-5669Y1106678D01*
X-5669Y1122426D01*
X-589Y1137920D01*
X4490Y1143000D01*
X14904Y1148334D01*
X-779856Y2322321D02*
G01*
X-769442Y2327655D01*
X-759028Y2338070D01*
X-753948Y2348229D01*
X-753948Y2369057D01*
X-759028Y2379471D01*
X-769442Y2389886D01*
X-779856Y2395220D01*
X-795604Y2400300D01*
X-821512Y2400300D01*
X-837006Y2395220D01*
X-847420Y2389886D01*
X-857834Y2379471D01*
X-862914Y2369057D01*
X-862914Y2348229D01*
X-857834Y2338070D01*
X-847420Y2327655D01*
X-837006Y2322321D01*
X-774776Y2288031D02*
G01*
X-769442Y2277618D01*
X-753948Y2262123D01*
X-862914Y2262123D01*
X-1300556Y2360421D02*
G01*
X-1290142Y2365755D01*
X-1279728Y2376170D01*
X-1274648Y2386329D01*
X-1274648Y2407157D01*
X-1279728Y2417571D01*
X-1290142Y2427986D01*
X-1300556Y2433320D01*
X-1316304Y2438400D01*
X-1342212Y2438400D01*
X-1357706Y2433320D01*
X-1368120Y2427986D01*
X-1378534Y2417571D01*
X-1383614Y2407157D01*
X-1383614Y2386329D01*
X-1378534Y2376170D01*
X-1368120Y2365755D01*
X-1357706Y2360421D01*
X-1300556Y2321052D02*
G01*
X-1295476Y2321052D01*
X-1285062Y2315718D01*
X-1279728Y2310637D01*
X-1274648Y2300223D01*
X-1274648Y2279395D01*
X-1279728Y2268981D01*
X-1285062Y2263902D01*
X-1295476Y2258568D01*
X-1305890Y2258568D01*
X-1316304Y2263902D01*
X-1331798Y2274315D01*
X-1383614Y2326131D01*
X-1383614Y2253487D01*
X-259156Y1954021D02*
G01*
X-248742Y1959355D01*
X-238328Y1969770D01*
X-233248Y1979929D01*
X-233248Y2000757D01*
X-238328Y2011171D01*
X-248742Y2021586D01*
X-259156Y2026920D01*
X-274904Y2032000D01*
X-300812Y2032000D01*
X-316306Y2026920D01*
X-326720Y2021586D01*
X-337134Y2011171D01*
X-342214Y2000757D01*
X-342214Y1979929D01*
X-337134Y1969770D01*
X-326720Y1959355D01*
X-316306Y1954021D01*
X-233248Y1909318D02*
G01*
X-233248Y1852168D01*
X-274904Y1883410D01*
X-274904Y1867915D01*
X-279984Y1857502D01*
X-285064Y1852168D01*
X-300812Y1847087D01*
X-311226Y1847087D01*
X-326720Y1852168D01*
X-337134Y1862581D01*
X-342214Y1878329D01*
X-342214Y1893823D01*
X-337134Y1909318D01*
X-332054Y1914652D01*
X-321640Y1919731D01*
X-475056Y1547621D02*
G01*
X-464642Y1552955D01*
X-454228Y1563370D01*
X-449148Y1573529D01*
X-449148Y1594357D01*
X-454228Y1604771D01*
X-464642Y1615186D01*
X-475056Y1620520D01*
X-490804Y1625600D01*
X-516712Y1625600D01*
X-532206Y1620520D01*
X-542620Y1615186D01*
X-553034Y1604771D01*
X-558114Y1594357D01*
X-558114Y1573529D01*
X-553034Y1563370D01*
X-542620Y1552955D01*
X-532206Y1547621D01*
X-464642Y1451102D02*
G01*
X-454228Y1456181D01*
X-449148Y1471929D01*
X-449148Y1482089D01*
X-454228Y1497837D01*
X-469976Y1508252D01*
X-495884Y1513331D01*
X-521792Y1513331D01*
X-542620Y1508252D01*
X-553034Y1497837D01*
X-558114Y1482089D01*
X-558114Y1477010D01*
X-553034Y1461515D01*
X-542620Y1451102D01*
X-527126Y1445768D01*
X-521792Y1445768D01*
X-506298Y1451102D01*
X-495884Y1461515D01*
X-490804Y1477010D01*
X-490804Y1482089D01*
X-495884Y1497837D01*
X-506298Y1508252D01*
X-521792Y1513331D01*
X-564972Y1233678D02*
G01*
X-575386Y1228344D01*
X-585800Y1217929D01*
X-590880Y1207770D01*
X-590880Y1186942D01*
X-585800Y1176528D01*
X-575386Y1166113D01*
X-564972Y1160779D01*
X-549224Y1155700D01*
X-523316Y1155700D01*
X-507822Y1160779D01*
X-497408Y1166113D01*
X-486994Y1176528D01*
X-481914Y1186942D01*
X-481914Y1207770D01*
X-486994Y1217929D01*
X-497408Y1228344D01*
X-507822Y1233678D01*
X-590880Y1340612D02*
G01*
X-481914Y1288795D01*
X-590880Y1267968D02*
G01*
X-590880Y1340612D01*
X-676986Y1003807D02*
G01*
X-682320Y1014221D01*
X-692734Y1024636D01*
X-702894Y1029715D01*
X-723722Y1029715D01*
X-734136Y1024636D01*
X-744550Y1014221D01*
X-749884Y1003807D01*
X-754964Y988060D01*
X-754964Y962152D01*
X-749884Y946657D01*
X-744550Y936244D01*
X-734136Y925829D01*
X-723722Y920750D01*
X-702894Y920750D01*
X-692734Y925829D01*
X-682320Y936244D01*
X-676986Y946657D01*
X-616788Y1029715D02*
G01*
X-632282Y1024636D01*
X-637616Y1014221D01*
X-637616Y1003807D01*
X-632282Y993394D01*
X-621868Y988060D01*
X-601294Y982979D01*
X-585546Y977900D01*
X-575132Y967486D01*
X-570052Y957071D01*
X-570052Y941323D01*
X-575132Y930910D01*
X-580466Y925829D01*
X-595960Y920750D01*
X-616788Y920750D01*
X-632282Y925829D01*
X-637616Y930910D01*
X-642696Y941323D01*
X-642696Y957071D01*
X-637616Y967486D01*
X-627202Y977900D01*
X-611454Y982979D01*
X-590880Y988060D01*
X-580466Y993394D01*
X-575132Y1003807D01*
X-575132Y1014221D01*
X-580466Y1024636D01*
X-595960Y1029715D01*
X-616788Y1029715D01*
X-418185Y508507D02*
G01*
X-423519Y518921D01*
X-433933Y529336D01*
X-444093Y534415D01*
X-464921Y534415D01*
X-475335Y529336D01*
X-485749Y518921D01*
X-491083Y508507D01*
X-496163Y492760D01*
X-496163Y466852D01*
X-491083Y451357D01*
X-485749Y440944D01*
X-475335Y430529D01*
X-464921Y425450D01*
X-444093Y425450D01*
X-433933Y430529D01*
X-423519Y440944D01*
X-418185Y451357D01*
X-316331Y498094D02*
G01*
X-321665Y482600D01*
X-332079Y472186D01*
X-347573Y466852D01*
X-352653Y466852D01*
X-368401Y472186D01*
X-378815Y482600D01*
X-383895Y498094D01*
X-383895Y503173D01*
X-378815Y518921D01*
X-368401Y529336D01*
X-352653Y534415D01*
X-347573Y534415D01*
X-332079Y529336D01*
X-321665Y518921D01*
X-316331Y498094D01*
X-316331Y472186D01*
X-321665Y446023D01*
X-332079Y430529D01*
X-347573Y425450D01*
X-357987Y425450D01*
X-373481Y430529D01*
X-378815Y440944D01*
X-1402156Y518921D02*
G01*
X-1391742Y524255D01*
X-1381328Y534670D01*
X-1376248Y544829D01*
X-1376248Y565657D01*
X-1381328Y576071D01*
X-1391742Y586486D01*
X-1402156Y591820D01*
X-1417904Y596900D01*
X-1443812Y596900D01*
X-1459306Y591820D01*
X-1469720Y586486D01*
X-1480134Y576071D01*
X-1485214Y565657D01*
X-1485214Y544829D01*
X-1480134Y534670D01*
X-1469720Y524255D01*
X-1459306Y518921D01*
X-1397076Y484631D02*
G01*
X-1391742Y474218D01*
X-1376248Y458723D01*
X-1485214Y458723D01*
X-1376248Y393192D02*
G01*
X-1381328Y408939D01*
X-1397076Y419100D01*
X-1422984Y424434D01*
X-1438478Y424434D01*
X-1464640Y419100D01*
X-1480134Y408939D01*
X-1485214Y393192D01*
X-1485214Y382778D01*
X-1480134Y367284D01*
X-1464640Y356870D01*
X-1438478Y351789D01*
X-1422984Y351789D01*
X-1397076Y356870D01*
X-1381328Y367284D01*
X-1376248Y382778D01*
X-1376248Y393192D01*
X707313Y2134107D02*
G01*
X701979Y2144521D01*
X691565Y2154936D01*
X681405Y2160015D01*
X660577Y2160015D01*
X650163Y2154936D01*
X639749Y2144521D01*
X634415Y2134107D01*
X629335Y2118360D01*
X629335Y2092452D01*
X634415Y2076957D01*
X639749Y2066544D01*
X650163Y2056129D01*
X660577Y2051050D01*
X681405Y2051050D01*
X691565Y2056129D01*
X701979Y2066544D01*
X707313Y2076957D01*
X741603Y2139187D02*
G01*
X752017Y2144521D01*
X767511Y2160015D01*
X767511Y2051050D01*
X801801Y2139187D02*
G01*
X812215Y2144521D01*
X827709Y2160015D01*
X827709Y2051050D01*
X240944Y277621D02*
G01*
X251358Y282955D01*
X261772Y293370D01*
X266852Y303529D01*
X266852Y324357D01*
X261772Y334771D01*
X251358Y345186D01*
X240944Y350520D01*
X225196Y355600D01*
X199288Y355600D01*
X183794Y350520D01*
X173380Y345186D01*
X162966Y334771D01*
X157886Y324357D01*
X157886Y303529D01*
X162966Y293370D01*
X173380Y282955D01*
X183794Y277621D01*
X246024Y243331D02*
G01*
X251358Y232918D01*
X266852Y217423D01*
X157886Y217423D01*
X266852Y131063D02*
G01*
X194208Y183134D01*
X194208Y105155D01*
X266852Y131063D02*
G01*
X157886Y131063D01*
X-1834946Y509803D02*
G01*
X-1845360Y504469D01*
X-1855774Y494055D01*
X-1860854Y483641D01*
X-1860854Y463067D01*
X-1855774Y452653D01*
X-1845360Y442239D01*
X-1834946Y436905D01*
X-1819452Y431825D01*
X-1793290Y431825D01*
X-1777796Y436905D01*
X-1767382Y442239D01*
X-1756968Y452653D01*
X-1751888Y463067D01*
X-1751888Y483641D01*
X-1756968Y494055D01*
X-1767382Y504469D01*
X-1777796Y509803D01*
X-1840026Y544093D02*
G01*
X-1845360Y554507D01*
X-1860854Y570001D01*
X-1751888Y570001D01*
X-1860854Y666521D02*
G01*
X-1860854Y614705D01*
X-1814118Y609371D01*
X-1819452Y614705D01*
X-1824532Y630199D01*
X-1824532Y645947D01*
X-1819452Y661441D01*
X-1809038Y671855D01*
X-1793290Y676935D01*
X-1782876Y676935D01*
X-1767382Y671855D01*
X-1756968Y661441D01*
X-1751888Y645947D01*
X-1751888Y630199D01*
X-1756968Y614705D01*
X-1762302Y609371D01*
X-1772462Y604291D01*
X1302435Y2033015D02*
G01*
X1302435Y1924050D01*
X1302435Y2033015D02*
G01*
X1349171Y2033015D01*
X1364665Y2027936D01*
X1369999Y2022602D01*
X1375079Y2012187D01*
X1375079Y2001773D01*
X1369999Y1991360D01*
X1364665Y1986279D01*
X1349171Y1981200D01*
X1302435Y1981200D01*
X1338757Y1981200D02*
G01*
X1375079Y1924050D01*
X1482267Y2033015D02*
G01*
X1430197Y1924050D01*
X1409369Y2033015D02*
G01*
X1482267Y2033015D01*
X1581835Y1982215D02*
G01*
X1581835Y1873250D01*
X1581835Y1982215D02*
G01*
X1628571Y1982215D01*
X1644065Y1977136D01*
X1649399Y1971802D01*
X1654479Y1961387D01*
X1654479Y1950973D01*
X1649399Y1940560D01*
X1644065Y1935479D01*
X1628571Y1930400D01*
X1581835Y1930400D01*
X1618157Y1930400D02*
G01*
X1654479Y1873250D01*
X1714931Y1982215D02*
G01*
X1699183Y1977136D01*
X1694103Y1966721D01*
X1694103Y1956307D01*
X1699183Y1945894D01*
X1709597Y1940560D01*
X1730425Y1935479D01*
X1745919Y1930400D01*
X1756333Y1919986D01*
X1761667Y1909571D01*
X1761667Y1893823D01*
X1756333Y1883410D01*
X1751253Y1878329D01*
X1735505Y1873250D01*
X1714931Y1873250D01*
X1699183Y1878329D01*
X1694103Y1883410D01*
X1688769Y1893823D01*
X1688769Y1909571D01*
X1694103Y1919986D01*
X1704517Y1930400D01*
X1720011Y1935479D01*
X1740839Y1940560D01*
X1751253Y1945894D01*
X1756333Y1956307D01*
X1756333Y1966721D01*
X1751253Y1977136D01*
X1735505Y1982215D01*
X1714931Y1982215D01*
X-1886280Y-355600D02*
G01*
X-1777314Y-355600D01*
X-1886280Y-355600D02*
G01*
X-1886280Y-308863D01*
X-1881200Y-293370D01*
X-1875866Y-288036D01*
X-1865452Y-282955D01*
X-1855038Y-282955D01*
X-1844624Y-288036D01*
X-1839544Y-293370D01*
X-1834464Y-308863D01*
X-1834464Y-355600D01*
X-1834464Y-319278D02*
G01*
X-1777314Y-282955D01*
X-1849958Y-181102D02*
G01*
X-1834464Y-186181D01*
X-1824050Y-196595D01*
X-1818716Y-212089D01*
X-1818716Y-217423D01*
X-1824050Y-232918D01*
X-1834464Y-243331D01*
X-1849958Y-248665D01*
X-1855038Y-248665D01*
X-1870786Y-243331D01*
X-1881200Y-232918D01*
X-1886280Y-217423D01*
X-1886280Y-212089D01*
X-1881200Y-196595D01*
X-1870786Y-186181D01*
X-1849958Y-181102D01*
X-1824050Y-181102D01*
X-1797888Y-186181D01*
X-1782394Y-196595D01*
X-1777314Y-212089D01*
X-1777314Y-222504D01*
X-1782394Y-238252D01*
X-1792808Y-243331D01*
X1188135Y-356615D02*
G01*
X1188135Y-247650D01*
X1188135Y-356615D02*
G01*
X1141399Y-356615D01*
X1125905Y-351536D01*
X1120571Y-346202D01*
X1115491Y-335787D01*
X1115491Y-325373D01*
X1120571Y-314960D01*
X1125905Y-309879D01*
X1141399Y-304800D01*
X1188135Y-304800D01*
X1151813Y-304800D02*
G01*
X1115491Y-247650D01*
X1081201Y-335787D02*
G01*
X1070787Y-341121D01*
X1055039Y-356615D01*
X1055039Y-247650D01*
X989761Y-356615D02*
G01*
X1005255Y-351536D01*
X1015669Y-335787D01*
X1020749Y-309879D01*
X1020749Y-294386D01*
X1015669Y-268223D01*
X1005255Y-252729D01*
X989761Y-247650D01*
X979347Y-247650D01*
X963599Y-252729D01*
X953185Y-268223D01*
X948105Y-294386D01*
X948105Y-309879D01*
X953185Y-335787D01*
X963599Y-351536D01*
X979347Y-356615D01*
X989761Y-356615D01*
X1149083Y1752663D02*
G01*
X1226807Y1752663D01*
X1242555Y1757743D01*
X1252969Y1768157D01*
X1258049Y1783651D01*
X1258049Y1794065D01*
X1252969Y1809813D01*
X1242555Y1820227D01*
X1226807Y1825307D01*
X1149083Y1825307D01*
X1149083Y1911667D02*
G01*
X1221727Y1859597D01*
X1221727Y1937575D01*
X1149083Y1911667D02*
G01*
X1258049Y1911667D01*
X1379651Y-272554D02*
G01*
X1374571Y-262140D01*
X1364157Y-251726D01*
X1353743Y-246392D01*
X1337995Y-241312D01*
X1312087Y-241312D01*
X1296593Y-246392D01*
X1286179Y-251726D01*
X1275765Y-262140D01*
X1270685Y-272554D01*
X1270685Y-293128D01*
X1275765Y-303542D01*
X1286179Y-313956D01*
X1296593Y-319290D01*
X1312087Y-324370D01*
X1337995Y-324370D01*
X1353743Y-319290D01*
X1364157Y-313956D01*
X1374571Y-303542D01*
X1379651Y-293128D01*
X1379651Y-272554D01*
X1291259Y-288048D02*
G01*
X1260271Y-319290D01*
X1353743Y-363994D02*
G01*
X1358823Y-363994D01*
X1369237Y-369074D01*
X1374571Y-374408D01*
X1379651Y-384568D01*
X1379651Y-405396D01*
X1374571Y-415810D01*
X1369237Y-421144D01*
X1358823Y-426224D01*
X1348409Y-426224D01*
X1337995Y-421144D01*
X1322501Y-410730D01*
X1270685Y-358660D01*
X1270685Y-431558D01*
G36*
X1472285Y604977D02*
G01*
X1472285Y574497D01*
X1504289Y574497D01*
X1504289Y604977D01*
G37*
G36*
X1303782Y604977D02*
G01*
X1303782Y574497D01*
X1335786Y574497D01*
X1335786Y604977D01*
G37*
D17*
X19735Y1600200D02*
G01*
X19735Y1612900D01*
X2514600Y584200D02*
G01*
X2514600Y2616197D01*
X2260600Y584200D02*
G01*
X2260600Y2616197D01*
X2260600Y584200D02*
G01*
X2514600Y584200D01*
X2514600Y2616197D02*
G01*
X2260600Y2616197D01*
D16*
X58978Y53360D02*
G01*
X-36908Y53360D01*
X-36908Y-78760D01*
X58978Y-78760D01*
X144221Y53360D02*
G01*
X240108Y53360D01*
X240108Y-78760D01*
X144221Y-78760D01*
D17*
X-1474063Y-58978D02*
G01*
X-1474063Y-38100D01*
X-1016863Y-38100D01*
X-915263Y-139700D01*
X-1474063Y-408978D02*
G01*
X-1474063Y-175209D01*
X-1474063Y-546100D02*
G01*
X-1474063Y-525208D01*
X-915314Y-525259D02*
G01*
X-915314Y-546087D01*
X-1474063Y-546100D01*
X-915263Y-139700D02*
G01*
X-915263Y-408978D01*
X29339Y2542400D02*
G01*
X129339Y2542400D01*
X129339Y2692400D01*
X229334Y2892399D02*
G01*
X429333Y2892399D01*
X229415Y2892300D02*
G01*
X229415Y3292350D01*
X429308Y2892300D02*
G01*
X429308Y3292350D01*
X629333Y2542400D02*
G01*
X529333Y2542400D01*
X529333Y2692400D01*
X29258Y3302507D02*
G01*
X29258Y2542288D01*
X629333Y2542400D02*
G01*
X629333Y3302396D01*
X29339Y3302507D02*
G01*
X629208Y3302507D01*
X529333Y2692400D02*
G01*
X527451Y2692400D01*
X331223Y2692400D02*
G01*
X327451Y2692400D01*
X131224Y2692400D02*
G01*
X129339Y2692400D01*
X2147836Y490496D02*
G01*
X2147836Y390497D01*
X2297836Y390497D01*
X2497836Y290502D02*
G01*
X2497836Y90502D01*
X2497736Y290421D02*
G01*
X2897786Y290421D01*
X2497736Y90528D02*
G01*
X2897786Y90528D01*
X2147836Y-109496D02*
G01*
X2147836Y-9497D01*
X2297836Y-9497D01*
X2907944Y490578D02*
G01*
X2147724Y490578D01*
X2147836Y-109496D02*
G01*
X2907832Y-109496D01*
X2907944Y490496D02*
G01*
X2907944Y-109372D01*
X2297836Y-9497D02*
G01*
X2297836Y-7614D01*
X2297836Y188612D02*
G01*
X2297836Y192384D01*
X2297836Y388612D02*
G01*
X2297836Y390497D01*
X-93372Y2760659D02*
G01*
X-93372Y2886102D01*
X-438373Y3461097D02*
G01*
X-198376Y3461097D01*
X-93372Y2886095D02*
G01*
X-198376Y2886095D01*
X-198376Y2886095D02*
G01*
X-198376Y3456990D01*
X-438376Y2886095D02*
G01*
X-543379Y2886095D01*
X-438373Y2886097D02*
G01*
X-438373Y3461097D01*
X-260916Y2611099D02*
G01*
X-375861Y2611099D01*
X-543379Y2760690D02*
G01*
X-543379Y2886102D01*
D16*
X-1502242Y2348560D02*
G01*
X-1430439Y2348560D01*
X-1430439Y2248839D01*
X-1502242Y2248839D01*
X-1547484Y2348560D02*
G01*
X-1619288Y2348560D01*
X-1619288Y2248839D01*
X-1547484Y2248839D01*
X-2005553Y1591561D02*
G01*
X-2005553Y1641561D01*
X-1921075Y1576318D02*
G01*
X-1990316Y1576318D01*
X-1905835Y1641561D02*
G01*
X-1905835Y1591561D01*
X-1906049Y1735838D02*
G01*
X-1906049Y1685838D01*
X-2005761Y1685838D02*
G01*
X-2005761Y1735838D01*
X-1990526Y1751081D02*
G01*
X-1921283Y1751081D01*
X1491658Y516176D02*
G01*
X1316413Y516176D01*
X1311412Y582122D02*
G01*
X1311412Y306877D01*
X1496659Y582122D02*
G01*
X1496659Y306877D01*
X1496659Y306877D02*
G01*
X1477355Y306877D01*
X1311412Y306877D02*
G01*
X1330716Y306877D01*
D17*
X-682190Y2906946D02*
G01*
X-682190Y3305703D01*
X-731880Y3305703D01*
X-731880Y2906946D01*
X-882190Y2906948D02*
G01*
X-882190Y3305703D01*
X-931875Y3305703D01*
X-931875Y2906948D01*
X-1082187Y2906941D02*
G01*
X-1082187Y3305700D01*
X-1131874Y3305700D01*
X-1131874Y2906941D01*
X-1282189Y2906941D02*
G01*
X-1282189Y3305698D01*
X-1331879Y3305698D01*
X-1331879Y2906941D01*
X-1482189Y2906946D02*
G01*
X-1482189Y3305698D01*
X-1531879Y3305698D01*
X-1531879Y2906946D01*
X-1682173Y2906941D02*
G01*
X-1682173Y3305698D01*
X-1731863Y3305698D01*
X-1731863Y2906941D01*
X-1807357Y2706786D02*
G01*
X-607397Y2706786D01*
X-1607347Y2906687D02*
G01*
X-1607347Y2706786D01*
X-1807349Y2906687D02*
G01*
X-1807349Y2706786D01*
X-607397Y2706786D02*
G01*
X-607161Y2906941D01*
X-1407350Y2906687D02*
G01*
X-1407350Y2706786D01*
X-1207348Y2906687D02*
G01*
X-1207348Y2706786D01*
X-1007193Y2706786D02*
G01*
X-1007193Y2906687D01*
X-807298Y2706796D02*
G01*
X-807298Y2906798D01*
X-607143Y2906941D02*
G01*
X-1807357Y2906941D01*
D14*
X-2096363Y1714500D02*
G01*
X-2350363Y1714500D01*
X-2350363Y1968500D01*
X-2096363Y1968500D01*
X-2096363Y1778000D01*
D18*
X-2096363Y1714500D02*
G01*
X-2096363Y1778000D01*
D14*
X-1923364Y2057400D02*
G01*
X-2177364Y2057400D01*
X-2177364Y2311400D01*
X-1923364Y2311400D01*
X-1923364Y2120900D01*
D18*
X-1923364Y2057400D02*
G01*
X-1923364Y2120900D01*
D19*
X1997577Y1224948D02*
G01*
X1996582Y1224948D01*
X1963577Y1257952D01*
X1997577Y1292951D02*
G01*
X1997577Y1291953D01*
X1963577Y1257952D01*
X1997577Y1292951D02*
G01*
X1997577Y1224948D01*
X1999581Y1332958D02*
G01*
X2114583Y1332958D01*
X1999581Y1182946D02*
G01*
X2114583Y1182946D01*
X2114583Y1332948D02*
G01*
X2114583Y1184955D01*
X1961581Y1182715D02*
G01*
X1856569Y1182715D01*
X1826574Y1222722D02*
G01*
X1826574Y1212720D01*
X1856569Y1182715D01*
X1826574Y1292717D02*
G01*
X1826574Y1222722D01*
X1826574Y1292717D02*
G01*
X1826574Y1302732D01*
X1856569Y1332727D01*
X1961581Y1332727D02*
G01*
X1856569Y1332727D01*
X1997577Y1257952D02*
G01*
X1963577Y1257952D01*
X1997577Y1008509D02*
G01*
X1996582Y1008509D01*
X1963577Y1041514D01*
X1997577Y1076512D02*
G01*
X1997577Y1075514D01*
X1963577Y1041514D01*
X1997577Y1076512D02*
G01*
X1997577Y1008509D01*
X1999581Y1116520D02*
G01*
X2114583Y1116520D01*
X1999581Y966508D02*
G01*
X2114583Y966508D01*
X2114583Y1116510D02*
G01*
X2114583Y968517D01*
X1961581Y966276D02*
G01*
X1856569Y966276D01*
X1826574Y1006284D02*
G01*
X1826574Y996281D01*
X1856569Y966276D01*
X1826574Y1076279D02*
G01*
X1826574Y1006284D01*
X1826574Y1076279D02*
G01*
X1826574Y1086294D01*
X1856569Y1116289D01*
X1961581Y1116289D02*
G01*
X1856569Y1116289D01*
X1997577Y1041514D02*
G01*
X1963577Y1041514D01*
D16*
X1610014Y1207978D02*
G01*
X1538211Y1207978D01*
X1538211Y1307698D01*
X1610014Y1307698D01*
X1655257Y1207978D02*
G01*
X1727060Y1207978D01*
X1727060Y1307698D01*
X1655257Y1307698D01*
X-893724Y-205978D02*
G01*
X-893724Y-134175D01*
X-794004Y-134175D01*
X-794004Y-205978D01*
X-893724Y-251221D02*
G01*
X-893724Y-323024D01*
X-794004Y-323024D01*
X-794004Y-251221D01*
D10*
X-2114047Y1006299D02*
G01*
X-2110816Y1006299D01*
X-2110816Y746302D01*
X-2114047Y746302D01*
X-2370813Y943066D02*
G01*
X-2370813Y1006299D01*
X-2367577Y746302D02*
G01*
X-2370813Y746302D01*
X-2370813Y809536D01*
X-2370813Y1006299D02*
G01*
X-2367577Y1006299D01*
D17*
X1291539Y1397990D02*
G01*
X1291539Y887984D01*
X1291539Y888009D02*
G01*
X881532Y888009D01*
X881532Y888009D02*
G01*
X881532Y1398015D01*
X1166545Y1397990D02*
G01*
X1291539Y1397990D01*
X1006525Y1397990D02*
G01*
X881532Y1397990D01*
D16*
X134975Y1470421D02*
G01*
X134975Y1542224D01*
X234695Y1542224D01*
X234695Y1470421D01*
X134975Y1425178D02*
G01*
X134975Y1353375D01*
X234695Y1353375D01*
X234695Y1425178D01*
X-56484Y1624081D02*
G01*
X121356Y1624081D01*
X-56484Y1931918D02*
G01*
X121356Y1931918D01*
D19*
X-1080363Y2044700D02*
G01*
X-972477Y2044700D01*
X-1080363Y2197100D02*
G01*
X-972477Y2197100D01*
D20*
X-1187018Y337820D02*
G01*
X-1222070Y337820D01*
X-1222070Y957579D01*
X-872058Y957579D01*
X-872058Y337820D01*
X-1187018Y337820D01*
D16*
X-616310Y2015238D02*
G01*
X-616310Y1965238D01*
X-700788Y2030481D02*
G01*
X-631548Y2030481D01*
X-716028Y1965238D02*
G01*
X-716028Y2015238D01*
X-715815Y1870961D02*
G01*
X-715815Y1920961D01*
X-616102Y1920961D02*
G01*
X-616102Y1870961D01*
X-631337Y1855718D02*
G01*
X-700580Y1855718D01*
D17*
X-147954Y506900D02*
G01*
X-147954Y686902D01*
X162046Y506900D02*
G01*
X162046Y686902D01*
D16*
X1622714Y991539D02*
G01*
X1550911Y991539D01*
X1550911Y1091260D01*
X1622714Y1091260D01*
X1667957Y991539D02*
G01*
X1739760Y991539D01*
X1739760Y1091260D01*
X1667957Y1091260D01*
X1063914Y-49860D02*
G01*
X992111Y-49860D01*
X992111Y49860D01*
X1063914Y49860D01*
X1109157Y-49860D02*
G01*
X1180960Y-49860D01*
X1180960Y49860D01*
X1109157Y49860D01*
D17*
X-1001067Y1270789D02*
G01*
X-1001067Y1224003D01*
X-1047854Y1823996D02*
G01*
X-1001067Y1823996D01*
X-1001067Y1776943D01*
X-1601061Y1776943D02*
G01*
X-1601061Y1823996D01*
X-1554261Y1823996D01*
X-1554261Y1224003D02*
G01*
X-1601061Y1224003D01*
X-1601061Y1270789D01*
X-1001067Y1224003D02*
G01*
X-1047854Y1224003D01*
D16*
X-1675467Y774694D02*
G01*
X-1675467Y853704D01*
X-1660230Y868946D01*
X-1590989Y868946D01*
X-1575752Y853704D01*
X-1575752Y774694D01*
X-1675467Y749294D02*
G01*
X-1675467Y670300D01*
X-1660227Y655060D01*
X-1591901Y655060D01*
X-1575645Y671316D01*
X-1575645Y749294D01*
D17*
X877831Y2435235D02*
G01*
X877831Y2425697D01*
X984933Y2425697D01*
X877831Y2800192D02*
G01*
X877831Y2581465D01*
X877831Y3148345D02*
G01*
X877831Y3001904D01*
X1777832Y2435235D02*
G01*
X1777832Y2425697D01*
X1670949Y2425697D01*
X1777832Y2787492D02*
G01*
X1777832Y2581465D01*
X1777832Y3148345D02*
G01*
X1777832Y2989204D01*
X1777832Y3148345D02*
G01*
X877831Y3148345D01*
D16*
X-220624Y1470421D02*
G01*
X-220624Y1542224D01*
X-120904Y1542224D01*
X-120904Y1470421D01*
X-220624Y1425178D02*
G01*
X-220624Y1353375D01*
X-120904Y1353375D01*
X-120904Y1425178D01*
X653795Y1120378D02*
G01*
X653795Y1048575D01*
X554075Y1048575D01*
X554075Y1120378D01*
X653795Y1165621D02*
G01*
X653795Y1237424D01*
X554075Y1237424D01*
X554075Y1165621D01*
X658797Y722853D02*
G01*
X708797Y722853D01*
X643554Y638375D02*
G01*
X643554Y707616D01*
X708797Y623135D02*
G01*
X658797Y623135D01*
X803074Y623349D02*
G01*
X753074Y623349D01*
X753074Y723061D02*
G01*
X803074Y723061D01*
X818316Y707826D02*
G01*
X818316Y638583D01*
X75834Y1519938D02*
G01*
X75834Y1469938D01*
X-8643Y1535181D02*
G01*
X60596Y1535181D01*
X-23883Y1469938D02*
G01*
X-23883Y1519938D01*
X-23670Y1375661D02*
G01*
X-23670Y1425661D01*
X76042Y1425661D02*
G01*
X76042Y1375661D01*
X60807Y1360418D02*
G01*
X-8435Y1360418D01*
X-870310Y2408938D02*
G01*
X-870310Y2358938D01*
X-954788Y2424181D02*
G01*
X-885548Y2424181D01*
X-970028Y2358938D02*
G01*
X-970028Y2408938D01*
X-969815Y2264661D02*
G01*
X-969815Y2314661D01*
X-870102Y2314661D02*
G01*
X-870102Y2264661D01*
X-885337Y2249418D02*
G01*
X-954580Y2249418D01*
X-1137010Y2421638D02*
G01*
X-1137010Y2371638D01*
X-1221488Y2436881D02*
G01*
X-1152248Y2436881D01*
X-1236728Y2371638D02*
G01*
X-1236728Y2421638D01*
X-1236515Y2277361D02*
G01*
X-1236515Y2327361D01*
X-1136802Y2327361D02*
G01*
X-1136802Y2277361D01*
X-1152037Y2262118D02*
G01*
X-1221280Y2262118D01*
D17*
X-533821Y1958418D02*
G01*
X-533821Y2038416D01*
X-533867Y1902373D02*
G01*
X-533867Y1822376D01*
X-391853Y1958418D02*
G01*
X-391853Y2038416D01*
X-391901Y1902373D02*
G01*
X-391901Y1822376D01*
X-502838Y2069391D02*
G01*
X-422833Y2069391D01*
X-422887Y1791398D02*
G01*
X-502889Y1791398D01*
X-737021Y1653618D02*
G01*
X-737021Y1733616D01*
X-737067Y1597573D02*
G01*
X-737067Y1517576D01*
X-595053Y1653618D02*
G01*
X-595053Y1733616D01*
X-595101Y1597573D02*
G01*
X-595101Y1517576D01*
X-706038Y1764591D02*
G01*
X-626033Y1764591D01*
X-626087Y1486598D02*
G01*
X-706089Y1486598D01*
D16*
X-715817Y1185161D02*
G01*
X-715817Y1235161D01*
X-631339Y1169918D02*
G01*
X-700580Y1169918D01*
X-616099Y1235161D02*
G01*
X-616099Y1185161D01*
X-616313Y1329438D02*
G01*
X-616313Y1279438D01*
X-716025Y1279438D02*
G01*
X-716025Y1329438D01*
X-700791Y1344681D02*
G01*
X-631548Y1344681D01*
D17*
X-681382Y754542D02*
G01*
X-761380Y754542D01*
X-625337Y754496D02*
G01*
X-545340Y754496D01*
X-681382Y896510D02*
G01*
X-761380Y896510D01*
X-625337Y896462D02*
G01*
X-545340Y896462D01*
X-792355Y785525D02*
G01*
X-792355Y865530D01*
X-514362Y865477D02*
G01*
X-514362Y785474D01*
X-681382Y398942D02*
G01*
X-761380Y398942D01*
X-625337Y398896D02*
G01*
X-545340Y398896D01*
X-681382Y540910D02*
G01*
X-761380Y540910D01*
X-625337Y540862D02*
G01*
X-545340Y540862D01*
X-792355Y429925D02*
G01*
X-792355Y509930D01*
X-514362Y509877D02*
G01*
X-514362Y429874D01*
D16*
X-1391010Y846838D02*
G01*
X-1391010Y796838D01*
X-1475488Y862081D02*
G01*
X-1406248Y862081D01*
X-1490728Y796838D02*
G01*
X-1490728Y846838D01*
X-1490515Y702561D02*
G01*
X-1490515Y752561D01*
X-1390802Y752561D02*
G01*
X-1390802Y702561D01*
X-1406037Y687318D02*
G01*
X-1475280Y687318D01*
D17*
X956917Y2037242D02*
G01*
X876919Y2037242D01*
X1012962Y2037196D02*
G01*
X1092959Y2037196D01*
X956917Y2179210D02*
G01*
X876919Y2179210D01*
X1012962Y2179162D02*
G01*
X1092959Y2179162D01*
X845944Y2068225D02*
G01*
X845944Y2148230D01*
X1123937Y2148177D02*
G01*
X1123937Y2068174D01*
D16*
X348889Y707138D02*
G01*
X348889Y657138D01*
X264411Y722381D02*
G01*
X333651Y722381D01*
X249171Y657138D02*
G01*
X249171Y707138D01*
X249384Y562861D02*
G01*
X249384Y612861D01*
X349097Y612861D02*
G01*
X349097Y562861D01*
X333862Y547618D02*
G01*
X264619Y547618D01*
X-1858817Y689861D02*
G01*
X-1858817Y739861D01*
X-1774339Y674618D02*
G01*
X-1843580Y674618D01*
X-1759099Y739861D02*
G01*
X-1759099Y689861D01*
X-1759313Y834138D02*
G01*
X-1759313Y784138D01*
X-1859026Y784138D02*
G01*
X-1859026Y834138D01*
X-1843791Y849381D02*
G01*
X-1774548Y849381D01*
X1356014Y2058339D02*
G01*
X1284211Y2058339D01*
X1284211Y2158060D01*
X1356014Y2158060D01*
X1401257Y2058339D02*
G01*
X1473060Y2058339D01*
X1473060Y2158060D01*
X1401257Y2158060D01*
X1622714Y2058339D02*
G01*
X1550911Y2058339D01*
X1550911Y2158060D01*
X1622714Y2158060D01*
X1667957Y2058339D02*
G01*
X1739760Y2058339D01*
X1739760Y2158060D01*
X1667957Y2158060D01*
X-1603303Y-236778D02*
G01*
X-1603303Y-140891D01*
X-1735424Y-140891D01*
X-1735424Y-236778D01*
X-1603303Y-322021D02*
G01*
X-1603303Y-417908D01*
X-1735424Y-417908D01*
X-1735424Y-322021D01*
X1109157Y-115239D02*
G01*
X1180960Y-115239D01*
X1180960Y-214960D01*
X1109157Y-214960D01*
X1063914Y-115239D02*
G01*
X992111Y-115239D01*
X992111Y-214960D01*
X1063914Y-214960D01*
D17*
X1101841Y1662595D02*
G01*
X1101841Y1842597D01*
X986843Y1662595D02*
G01*
X906840Y1662595D01*
X791839Y1662595D02*
G01*
X791839Y1842597D01*
D16*
X1570354Y-125707D02*
G01*
X1570354Y49532D01*
X1466194Y49532D01*
X1263116Y-125707D02*
G01*
X1263116Y49532D01*
X1367276Y49532D01*
X1462275Y-125707D02*
G01*
X1371196Y-125707D01*
G75*
G01*
X-2005764Y1735839D02*
G02*
X-1990524Y1751079I15240J0D01*
G75*
G01*
X-1921284Y1751079D02*
G02*
X-1906044Y1735839I0J-15240D01*
G75*
G01*
X-1905836Y1591561D02*
G02*
X-1921076Y1576321I-15240J0D01*
G75*
G01*
X-1990316Y1576321D02*
G02*
X-2005556Y1591561I0J15240D01*
D17*
G75*
G01*
X1166546Y1392987D02*
G02*
X1006526Y1392987I-80010J37528D01*
D16*
G75*
G01*
X-616100Y1870961D02*
G02*
X-631340Y1855721I-15240J0D01*
G75*
G01*
X-700580Y1855721D02*
G02*
X-715820Y1870961I0J15240D01*
G75*
G01*
X-716029Y2015239D02*
G02*
X-700789Y2030479I15240J0D01*
G75*
G01*
X-631548Y2030479D02*
G02*
X-616308Y2015239I0J-15240D01*
D21*
G75*
G01*
X-1020933Y1863999D02*
G03*
X-1021187Y1863999I-127J15001D01*
D16*
G75*
G01*
X803074Y723064D02*
G02*
X818314Y707824I0J-15240D01*
G75*
G01*
X818314Y638584D02*
G02*
X803074Y623344I-15240J0D01*
G75*
G01*
X658797Y623136D02*
G02*
X643557Y638376I0J15240D01*
G75*
G01*
X643557Y707616D02*
G02*
X658797Y722856I15240J0D01*
G75*
G01*
X76045Y1375661D02*
G02*
X60805Y1360421I-15240J0D01*
G75*
G01*
X-8435Y1360421D02*
G02*
X-23675Y1375661I0J15240D01*
G75*
G01*
X-23884Y1519939D02*
G02*
X-8644Y1535179I15240J0D01*
G75*
G01*
X60597Y1535179D02*
G02*
X75837Y1519939I0J-15240D01*
G75*
G01*
X-870100Y2264661D02*
G02*
X-885340Y2249421I-15240J0D01*
G75*
G01*
X-954580Y2249421D02*
G02*
X-969820Y2264661I0J15240D01*
G75*
G01*
X-970029Y2408939D02*
G02*
X-954789Y2424179I15240J0D01*
G75*
G01*
X-885548Y2424179D02*
G02*
X-870308Y2408939I0J-15240D01*
G75*
G01*
X-1136800Y2277361D02*
G02*
X-1152040Y2262121I-15240J0D01*
G75*
G01*
X-1221280Y2262121D02*
G02*
X-1236520Y2277361I0J15240D01*
G75*
G01*
X-1236729Y2421639D02*
G02*
X-1221489Y2436879I15240J0D01*
G75*
G01*
X-1152248Y2436879D02*
G02*
X-1137008Y2421639I0J-15240D01*
D17*
G75*
G01*
X-391902Y1822381D02*
G02*
X-422887Y1791399I-30983J0D01*
G75*
G01*
X-502884Y1791399D02*
G02*
X-533867Y1822381I0J30982D01*
G75*
G01*
X-533822Y2038411D02*
G02*
X-502839Y2069391I30983J-3D01*
G75*
G01*
X-422841Y2069391D02*
G02*
X-391853Y2038411I5J-30983D01*
G75*
G01*
X-595102Y1517581D02*
G02*
X-626087Y1486599I-30983J0D01*
G75*
G01*
X-706084Y1486599D02*
G02*
X-737067Y1517581I0J30982D01*
G75*
G01*
X-737022Y1733611D02*
G02*
X-706039Y1764591I30983J-3D01*
G75*
G01*
X-626041Y1764591D02*
G02*
X-595053Y1733611I5J-30983D01*
D16*
G75*
G01*
X-716029Y1329439D02*
G02*
X-700789Y1344679I15240J0D01*
G75*
G01*
X-631548Y1344679D02*
G02*
X-616308Y1329439I0J-15240D01*
G75*
G01*
X-616100Y1185161D02*
G02*
X-631340Y1169921I-15240J0D01*
G75*
G01*
X-700580Y1169921D02*
G02*
X-715820Y1185161I0J15240D01*
D17*
G75*
G01*
X-545346Y896463D02*
G02*
X-514363Y865477I0J-30983D01*
G75*
G01*
X-514363Y785480D02*
G02*
X-545346Y754497I-30983J0D01*
G75*
G01*
X-761375Y754543D02*
G02*
X-792356Y785525I2J30982D01*
G75*
G01*
X-792356Y865523D02*
G02*
X-761375Y896511I30983J5D01*
G75*
G01*
X-545346Y540863D02*
G02*
X-514363Y509877I0J-30983D01*
G75*
G01*
X-514363Y429880D02*
G02*
X-545346Y398897I-30983J0D01*
G75*
G01*
X-761375Y398943D02*
G02*
X-792356Y429925I2J30982D01*
G75*
G01*
X-792356Y509923D02*
G02*
X-761375Y540911I30983J5D01*
D16*
G75*
G01*
X-1390800Y702561D02*
G02*
X-1406040Y687321I-15240J0D01*
G75*
G01*
X-1475280Y687321D02*
G02*
X-1490520Y702561I0J15240D01*
G75*
G01*
X-1490729Y846839D02*
G02*
X-1475489Y862079I15240J0D01*
G75*
G01*
X-1406248Y862079D02*
G02*
X-1391008Y846839I0J-15240D01*
D17*
G75*
G01*
X1092954Y2179163D02*
G02*
X1123937Y2148177I0J-30983D01*
G75*
G01*
X1123937Y2068180D02*
G02*
X1092954Y2037197I-30983J0D01*
G75*
G01*
X876925Y2037243D02*
G02*
X845944Y2068225I2J30982D01*
G75*
G01*
X845944Y2148223D02*
G02*
X876925Y2179211I30983J5D01*
D16*
G75*
G01*
X349100Y562861D02*
G02*
X333860Y547621I-15240J0D01*
G75*
G01*
X264620Y547621D02*
G02*
X249380Y562861I0J15240D01*
G75*
G01*
X249171Y707139D02*
G02*
X264411Y722379I15240J0D01*
G75*
G01*
X333652Y722379D02*
G02*
X348892Y707139I0J-15240D01*
G75*
G01*
X-1859029Y834139D02*
G02*
X-1843789Y849379I15240J0D01*
G75*
G01*
X-1774548Y849379D02*
G02*
X-1759308Y834139I0J-15240D01*
G75*
G01*
X-1759100Y689861D02*
G02*
X-1774340Y674621I-15240J0D01*
G75*
G01*
X-1843580Y674621D02*
G02*
X-1858820Y689861I0J15240D01*
D17*
G75*
G01
X853542Y1445997D02*
G03X853542Y1445997I-17018J0D01*
D21*
G75*
G01
X-82702Y1944827D02*
G03X-82702Y1944827I-15011J0D01*
D17*
G75*
G01
X184836Y736600D02*
G03X184836Y736600I-12700J0D01*
G75*
G01
X1124661Y1904975D02*
G03X1124661Y1904975I-12700J0D01*
M02*
