G04 Layer: TopPasteMaskLayer*
G04 EasyEDA v6.5.57, 2026-07-01 10:19:50*
G04 9afaf0bdf17a4b4e94e635eba880ba3c,d0571c7098b8490b8d1055de96b6f153,10*
G04 Gerber Generator version 0.2*
G04 Scale: 100 percent, Rotated: No, Reflected: No *
G04 Dimensions in millimeters *
G04 leading zeros omitted , absolute positions ,4 integer and 5 decimal *
%FSLAX45Y45*%
%MOMM*%

%AMMACRO1*21,1,$1,$2,0,0,$3*%
%ADD10MACRO1,1.7X0.7X0.0000*%
%ADD11R,0.5400X0.5000*%
%ADD12R,1.2000X1.2000*%
%ADD13R,0.8000X0.8000*%
%ADD14R,1.0500X1.0000*%
%ADD15R,2.2000X1.0500*%
%ADD16R,1.2000X0.6000*%
%ADD17R,0.0135X0.6000*%
%ADD18R,2.4000X3.3000*%
%ADD19R,1.0720X0.5320*%
%ADD20R,1.0000X1.8000*%
%ADD21R,2.4000X1.9000*%
%ADD22R,0.6000X1.1000*%
%ADD23R,0.5400X0.5400*%
%ADD24R,0.5000X0.5400*%
%ADD25R,0.9000X0.8000*%
%ADD26R,0.8000X0.9000*%
%ADD27R,0.6000X1.0000*%
%ADD28R,0.6000X1.0700*%

%LPD*%
G36*
X-17881Y32308D02*
G01*
X-22910Y27279D01*
X-22910Y-52679D01*
X-17881Y-57708D01*
X62077Y-57708D01*
X67106Y-52679D01*
X67106Y-29921D01*
X30124Y-29921D01*
X30124Y3098D01*
X67106Y3098D01*
X67106Y27279D01*
X62077Y32308D01*
G37*
G36*
X141122Y32308D02*
G01*
X136093Y27279D01*
X136093Y4521D01*
X173075Y4521D01*
X173075Y-28498D01*
X136093Y-28498D01*
X136093Y-52679D01*
X141122Y-57708D01*
X221081Y-57708D01*
X226110Y-52679D01*
X226110Y27279D01*
X221081Y32308D01*
G37*
G36*
X-1592427Y2325725D02*
G01*
X-1596440Y2321712D01*
X-1596440Y2275687D01*
X-1592427Y2271674D01*
X-1542338Y2271674D01*
X-1538376Y2275687D01*
X-1538376Y2321712D01*
X-1542338Y2325725D01*
G37*
G36*
X-1507337Y2325725D02*
G01*
X-1511350Y2321712D01*
X-1511350Y2275687D01*
X-1507337Y2271674D01*
X-1457299Y2271674D01*
X-1453286Y2275687D01*
X-1453286Y2321712D01*
X-1457299Y2325725D01*
G37*
G36*
X1650136Y1284833D02*
G01*
X1646123Y1280820D01*
X1646123Y1234846D01*
X1650136Y1230833D01*
X1700174Y1230833D01*
X1704187Y1234846D01*
X1704187Y1280820D01*
X1700174Y1284833D01*
G37*
G36*
X1565097Y1284833D02*
G01*
X1561084Y1280820D01*
X1561084Y1234846D01*
X1565097Y1230833D01*
X1615135Y1230833D01*
X1619148Y1234846D01*
X1619148Y1280820D01*
X1615135Y1284833D01*
G37*
G36*
X-866851Y-242112D02*
G01*
X-870864Y-246075D01*
X-870864Y-296164D01*
X-866851Y-300177D01*
X-820877Y-300177D01*
X-816864Y-296164D01*
X-816864Y-246075D01*
X-820877Y-242112D01*
G37*
G36*
X-866851Y-157022D02*
G01*
X-870864Y-161036D01*
X-870864Y-211124D01*
X-866851Y-215087D01*
X-820877Y-215087D01*
X-816864Y-211124D01*
X-816864Y-161036D01*
X-820877Y-157022D01*
G37*
G36*
X161848Y1434287D02*
G01*
X157835Y1430324D01*
X157835Y1380236D01*
X161848Y1376222D01*
X207822Y1376222D01*
X211836Y1380236D01*
X211836Y1430324D01*
X207822Y1434287D01*
G37*
G36*
X161848Y1519377D02*
G01*
X157835Y1515364D01*
X157835Y1465275D01*
X161848Y1461312D01*
X207822Y1461312D01*
X211836Y1465275D01*
X211836Y1515364D01*
X207822Y1519377D01*
G37*
G36*
X1662836Y1068425D02*
G01*
X1658823Y1064412D01*
X1658823Y1018387D01*
X1662836Y1014374D01*
X1712874Y1014374D01*
X1716887Y1018387D01*
X1716887Y1064412D01*
X1712874Y1068425D01*
G37*
G36*
X1577797Y1068425D02*
G01*
X1573784Y1064412D01*
X1573784Y1018387D01*
X1577797Y1014374D01*
X1627835Y1014374D01*
X1631848Y1018387D01*
X1631848Y1064412D01*
X1627835Y1068425D01*
G37*
G36*
X1104036Y27025D02*
G01*
X1100023Y23012D01*
X1100023Y-23012D01*
X1104036Y-27025D01*
X1154074Y-27025D01*
X1158087Y-23012D01*
X1158087Y23012D01*
X1154074Y27025D01*
G37*
G36*
X1018997Y27025D02*
G01*
X1014984Y23012D01*
X1014984Y-23012D01*
X1018997Y-27025D01*
X1069035Y-27025D01*
X1073048Y-23012D01*
X1073048Y23012D01*
X1069035Y27025D01*
G37*
G36*
X-1041095Y1753971D02*
G01*
X-1041095Y1733956D01*
X-961085Y1733956D01*
X-961085Y1753971D01*
G37*
G36*
X-1041095Y1713992D02*
G01*
X-1041095Y1693976D01*
X-961085Y1693976D01*
X-961085Y1713992D01*
G37*
G36*
X-1041095Y1674012D02*
G01*
X-1041095Y1653997D01*
X-961085Y1653997D01*
X-961085Y1674012D01*
G37*
G36*
X-1041095Y1633982D02*
G01*
X-1041095Y1613966D01*
X-961085Y1613966D01*
X-961085Y1633982D01*
G37*
G36*
X-1041095Y1594002D02*
G01*
X-1041095Y1573987D01*
X-961085Y1573987D01*
X-961085Y1594002D01*
G37*
G36*
X-1041095Y1553972D02*
G01*
X-1041095Y1533956D01*
X-961085Y1533956D01*
X-961085Y1553972D01*
G37*
G36*
X-1041095Y1513992D02*
G01*
X-1041095Y1493977D01*
X-961085Y1493977D01*
X-961085Y1513992D01*
G37*
G36*
X-1041095Y1474012D02*
G01*
X-1041095Y1453997D01*
X-961085Y1453997D01*
X-961085Y1474012D01*
G37*
G36*
X-1041095Y1433982D02*
G01*
X-1041095Y1413967D01*
X-961085Y1413967D01*
X-961085Y1433982D01*
G37*
G36*
X-1041095Y1394002D02*
G01*
X-1041095Y1373987D01*
X-961085Y1373987D01*
X-961085Y1394002D01*
G37*
G36*
X-1041095Y1353972D02*
G01*
X-1041095Y1333957D01*
X-961085Y1333957D01*
X-961085Y1353972D01*
G37*
G36*
X-1041095Y1313992D02*
G01*
X-1041095Y1293977D01*
X-961085Y1293977D01*
X-961085Y1313992D01*
G37*
G36*
X-1091082Y1264005D02*
G01*
X-1091082Y1183995D01*
X-1071067Y1183995D01*
X-1071067Y1264005D01*
G37*
G36*
X-1131062Y1264005D02*
G01*
X-1131062Y1183995D01*
X-1111046Y1183995D01*
X-1111046Y1264005D01*
G37*
G36*
X-1171041Y1264005D02*
G01*
X-1171041Y1183995D01*
X-1151077Y1183995D01*
X-1151077Y1264005D01*
G37*
G36*
X-1211072Y1264005D02*
G01*
X-1211072Y1183995D01*
X-1191056Y1183995D01*
X-1191056Y1264005D01*
G37*
G36*
X-1251051Y1264005D02*
G01*
X-1251051Y1183995D01*
X-1231087Y1183995D01*
X-1231087Y1264005D01*
G37*
G36*
X-1291082Y1264005D02*
G01*
X-1291082Y1183995D01*
X-1271066Y1183995D01*
X-1271066Y1264005D01*
G37*
G36*
X-1331061Y1264005D02*
G01*
X-1331061Y1183995D01*
X-1311046Y1183995D01*
X-1311046Y1264005D01*
G37*
G36*
X-1371041Y1264005D02*
G01*
X-1371041Y1183995D01*
X-1351076Y1183995D01*
X-1351076Y1264005D01*
G37*
G36*
X-1411071Y1264005D02*
G01*
X-1411071Y1183995D01*
X-1391056Y1183995D01*
X-1391056Y1264005D01*
G37*
G36*
X-1451051Y1264005D02*
G01*
X-1451051Y1183995D01*
X-1431086Y1183995D01*
X-1431086Y1264005D01*
G37*
G36*
X-1491081Y1264005D02*
G01*
X-1491081Y1183995D01*
X-1471066Y1183995D01*
X-1471066Y1264005D01*
G37*
G36*
X-1531061Y1264005D02*
G01*
X-1531061Y1183995D01*
X-1511046Y1183995D01*
X-1511046Y1264005D01*
G37*
G36*
X-1641043Y1313992D02*
G01*
X-1641043Y1293977D01*
X-1561084Y1293977D01*
X-1561084Y1313992D01*
G37*
G36*
X-1641043Y1353972D02*
G01*
X-1641043Y1333957D01*
X-1561084Y1333957D01*
X-1561084Y1353972D01*
G37*
G36*
X-1641043Y1394002D02*
G01*
X-1641043Y1373987D01*
X-1561084Y1373987D01*
X-1561084Y1394002D01*
G37*
G36*
X-1641043Y1433982D02*
G01*
X-1641043Y1413967D01*
X-1561084Y1413967D01*
X-1561084Y1433982D01*
G37*
G36*
X-1641043Y1474012D02*
G01*
X-1641043Y1453997D01*
X-1561084Y1453997D01*
X-1561084Y1474012D01*
G37*
G36*
X-1641043Y1513992D02*
G01*
X-1641043Y1493977D01*
X-1561084Y1493977D01*
X-1561084Y1513992D01*
G37*
G36*
X-1641043Y1553972D02*
G01*
X-1641043Y1533956D01*
X-1561084Y1533956D01*
X-1561084Y1553972D01*
G37*
G36*
X-1641043Y1594002D02*
G01*
X-1641043Y1573987D01*
X-1561084Y1573987D01*
X-1561084Y1594002D01*
G37*
G36*
X-1641043Y1633982D02*
G01*
X-1641043Y1613966D01*
X-1561084Y1613966D01*
X-1561084Y1633982D01*
G37*
G36*
X-1641043Y1674012D02*
G01*
X-1641043Y1653997D01*
X-1561084Y1653997D01*
X-1561084Y1674012D01*
G37*
G36*
X-1641043Y1713992D02*
G01*
X-1641043Y1693976D01*
X-1561084Y1693976D01*
X-1561084Y1713992D01*
G37*
G36*
X-1641043Y1753971D02*
G01*
X-1641043Y1733956D01*
X-1561084Y1733956D01*
X-1561084Y1753971D01*
G37*
G36*
X-1531061Y1864004D02*
G01*
X-1531061Y1783994D01*
X-1511046Y1783994D01*
X-1511046Y1864004D01*
G37*
G36*
X-1491081Y1864004D02*
G01*
X-1491081Y1783994D01*
X-1471066Y1783994D01*
X-1471066Y1864004D01*
G37*
G36*
X-1451051Y1864004D02*
G01*
X-1451051Y1783994D01*
X-1431086Y1783994D01*
X-1431086Y1864004D01*
G37*
G36*
X-1411071Y1864004D02*
G01*
X-1411071Y1783994D01*
X-1391056Y1783994D01*
X-1391056Y1864004D01*
G37*
G36*
X-1371041Y1864004D02*
G01*
X-1371041Y1783994D01*
X-1351076Y1783994D01*
X-1351076Y1864004D01*
G37*
G36*
X-1331061Y1864004D02*
G01*
X-1331061Y1783994D01*
X-1311046Y1783994D01*
X-1311046Y1864004D01*
G37*
G36*
X-1291082Y1864004D02*
G01*
X-1291082Y1783994D01*
X-1271066Y1783994D01*
X-1271066Y1864004D01*
G37*
G36*
X-1251051Y1864004D02*
G01*
X-1251051Y1783994D01*
X-1231087Y1783994D01*
X-1231087Y1864004D01*
G37*
G36*
X-1211072Y1864004D02*
G01*
X-1211072Y1783994D01*
X-1191056Y1783994D01*
X-1191056Y1864004D01*
G37*
G36*
X-1171041Y1864004D02*
G01*
X-1171041Y1783994D01*
X-1151077Y1783994D01*
X-1151077Y1864004D01*
G37*
G36*
X-1131062Y1864004D02*
G01*
X-1131062Y1783994D01*
X-1111046Y1783994D01*
X-1111046Y1864004D01*
G37*
G36*
X-1091082Y1864004D02*
G01*
X-1091082Y1783994D01*
X-1071067Y1783994D01*
X-1071067Y1864004D01*
G37*
G36*
X-1484934Y1707845D02*
G01*
X-1484934Y1339850D01*
X-1116939Y1339850D01*
X-1116939Y1707845D01*
G37*
G36*
X1557832Y2538323D02*
G01*
X1557832Y2378354D01*
X1647850Y2378354D01*
X1647850Y2538323D01*
G37*
G36*
X1439824Y2538323D02*
G01*
X1439824Y2378354D01*
X1519834Y2378354D01*
X1519834Y2538323D01*
G37*
G36*
X1342847Y2538323D02*
G01*
X1342847Y2378354D01*
X1412849Y2378354D01*
X1412849Y2538323D01*
G37*
G36*
X1242822Y2538323D02*
G01*
X1242822Y2378354D01*
X1312824Y2378354D01*
X1312824Y2538323D01*
G37*
G36*
X1135837Y2538323D02*
G01*
X1135837Y2378354D01*
X1215847Y2378354D01*
X1215847Y2538323D01*
G37*
G36*
X1007821Y2538323D02*
G01*
X1007821Y2378354D01*
X1097838Y2378354D01*
X1097838Y2538323D01*
G37*
G36*
X1759813Y2558338D02*
G01*
X1759813Y2458364D01*
X1959813Y2458364D01*
X1959813Y2558338D01*
G37*
G36*
X695858Y2558338D02*
G01*
X695858Y2458364D01*
X895858Y2458364D01*
X895858Y2558338D01*
G37*
G36*
X1758594Y2968345D02*
G01*
X1753616Y2967990D01*
X1748688Y2967126D01*
X1743913Y2965754D01*
X1739290Y2963926D01*
X1734820Y2961640D01*
X1730654Y2958947D01*
X1726742Y2955848D01*
X1723186Y2952394D01*
X1719986Y2948533D01*
X1717192Y2944418D01*
X1714804Y2940050D01*
X1712874Y2935478D01*
X1711401Y2930702D01*
X1710385Y2925826D01*
X1709877Y2920847D01*
X1709826Y2858363D01*
X1710080Y2853385D01*
X1710842Y2848457D01*
X1712061Y2843631D01*
X1713788Y2838958D01*
X1715922Y2834436D01*
X1718513Y2830220D01*
X1721561Y2826207D01*
X1724914Y2822549D01*
X1728673Y2819247D01*
X1732686Y2816352D01*
X1737004Y2813862D01*
X1741576Y2811830D01*
X1746300Y2810256D01*
X1751177Y2809138D01*
X1756105Y2808478D01*
X1761083Y2808376D01*
X1766062Y2808732D01*
X1770938Y2809595D01*
X1775764Y2810967D01*
X1780387Y2812796D01*
X1784857Y2815082D01*
X1789023Y2817774D01*
X1792935Y2820873D01*
X1796491Y2824378D01*
X1799691Y2828188D01*
X1802485Y2832303D01*
X1804873Y2836672D01*
X1806803Y2841244D01*
X1808276Y2846019D01*
X1809292Y2850896D01*
X1809800Y2855874D01*
X1809851Y2918358D01*
X1809597Y2923336D01*
X1808835Y2928264D01*
X1807616Y2933090D01*
X1805889Y2937764D01*
X1803755Y2942285D01*
X1801164Y2946552D01*
X1798116Y2950514D01*
X1794764Y2954172D01*
X1791004Y2957474D01*
X1786991Y2960370D01*
X1782673Y2962859D01*
X1778101Y2964891D01*
X1773377Y2966516D01*
X1768500Y2967583D01*
X1763572Y2968244D01*
G37*
G36*
X894587Y2981045D02*
G01*
X889609Y2980690D01*
X884732Y2979826D01*
X879906Y2978454D01*
X875284Y2976626D01*
X870813Y2974340D01*
X866648Y2971647D01*
X862736Y2968548D01*
X859180Y2965094D01*
X855980Y2961233D01*
X853186Y2957118D01*
X850798Y2952750D01*
X848868Y2948178D01*
X847394Y2943402D01*
X846378Y2938526D01*
X845870Y2933547D01*
X845819Y2871063D01*
X846074Y2866085D01*
X846836Y2861157D01*
X848055Y2856331D01*
X849782Y2851658D01*
X851916Y2847136D01*
X854506Y2842920D01*
X857554Y2838907D01*
X860907Y2835249D01*
X864666Y2831947D01*
X868730Y2829052D01*
X872998Y2826562D01*
X877569Y2824530D01*
X882294Y2822956D01*
X887171Y2821838D01*
X892098Y2821178D01*
X897077Y2821076D01*
X902055Y2821432D01*
X906983Y2822295D01*
X911758Y2823667D01*
X916381Y2825496D01*
X920851Y2827782D01*
X925017Y2830474D01*
X928928Y2833573D01*
X932484Y2837078D01*
X935685Y2840888D01*
X938479Y2845003D01*
X940866Y2849372D01*
X942797Y2853944D01*
X944270Y2858719D01*
X945286Y2863596D01*
X945794Y2868574D01*
X945845Y2931058D01*
X945591Y2936036D01*
X944829Y2940964D01*
X943610Y2945790D01*
X941882Y2950464D01*
X939749Y2954985D01*
X937158Y2959252D01*
X934161Y2963214D01*
X930757Y2966872D01*
X926998Y2970174D01*
X922985Y2973070D01*
X918667Y2975559D01*
X914095Y2977591D01*
X909370Y2979216D01*
X904494Y2980283D01*
X899566Y2980944D01*
G37*
G36*
X-193751Y1434287D02*
G01*
X-197764Y1430324D01*
X-197764Y1380236D01*
X-193751Y1376222D01*
X-147777Y1376222D01*
X-143764Y1380236D01*
X-143764Y1430324D01*
X-147777Y1434287D01*
G37*
G36*
X-193751Y1519377D02*
G01*
X-197764Y1515364D01*
X-197764Y1465275D01*
X-193751Y1461312D01*
X-147777Y1461312D01*
X-143764Y1465275D01*
X-143764Y1515364D01*
X-147777Y1519377D01*
G37*
G36*
X580948Y1214577D02*
G01*
X576935Y1210564D01*
X576935Y1160475D01*
X580948Y1156512D01*
X626922Y1156512D01*
X630936Y1160475D01*
X630936Y1210564D01*
X626922Y1214577D01*
G37*
G36*
X580948Y1129487D02*
G01*
X576935Y1125524D01*
X576935Y1075436D01*
X580948Y1071422D01*
X626922Y1071422D01*
X630936Y1075436D01*
X630936Y1125524D01*
X626922Y1129487D01*
G37*
G36*
X1396136Y2135225D02*
G01*
X1392123Y2131212D01*
X1392123Y2085187D01*
X1396136Y2081174D01*
X1446174Y2081174D01*
X1450187Y2085187D01*
X1450187Y2131212D01*
X1446174Y2135225D01*
G37*
G36*
X1311097Y2135225D02*
G01*
X1307084Y2131212D01*
X1307084Y2085187D01*
X1311097Y2081174D01*
X1361135Y2081174D01*
X1365148Y2085187D01*
X1365148Y2131212D01*
X1361135Y2135225D01*
G37*
G36*
X1662836Y2135225D02*
G01*
X1658823Y2131212D01*
X1658823Y2085187D01*
X1662836Y2081174D01*
X1712874Y2081174D01*
X1716887Y2085187D01*
X1716887Y2131212D01*
X1712874Y2135225D01*
G37*
G36*
X1577797Y2135225D02*
G01*
X1573784Y2131212D01*
X1573784Y2085187D01*
X1577797Y2081174D01*
X1627835Y2081174D01*
X1631848Y2085187D01*
X1631848Y2131212D01*
X1627835Y2135225D01*
G37*
G36*
X-1709369Y-154889D02*
G01*
X-1714347Y-159918D01*
X-1714347Y-239877D01*
X-1709369Y-244906D01*
X-1686560Y-244906D01*
X-1686560Y-207873D01*
X-1653590Y-207873D01*
X-1653590Y-244906D01*
X-1629359Y-244906D01*
X-1624380Y-239877D01*
X-1624380Y-159918D01*
X-1629359Y-154889D01*
G37*
G36*
X-1709369Y-313893D02*
G01*
X-1714347Y-318922D01*
X-1714347Y-398881D01*
X-1709369Y-403910D01*
X-1629359Y-403910D01*
X-1624380Y-398881D01*
X-1624380Y-318922D01*
X-1629359Y-313893D01*
X-1652168Y-313893D01*
X-1652168Y-350926D01*
X-1685137Y-350926D01*
X-1685137Y-313893D01*
G37*
G36*
X1018997Y-138074D02*
G01*
X1014984Y-142087D01*
X1014984Y-188112D01*
X1018997Y-192125D01*
X1069035Y-192125D01*
X1073048Y-188112D01*
X1073048Y-142087D01*
X1069035Y-138074D01*
G37*
G36*
X1104036Y-138074D02*
G01*
X1100023Y-142087D01*
X1100023Y-188112D01*
X1104036Y-192125D01*
X1154074Y-192125D01*
X1158087Y-188112D01*
X1158087Y-142087D01*
X1154074Y-138074D01*
G37*
D10*
G01*
X-964665Y-467093D03*
G01*
X-1424666Y-467093D03*
G01*
X-1424666Y-117093D03*
D11*
G01*
X-1955800Y1705711D03*
G01*
X-1955800Y1621688D03*
D12*
G01*
X1404035Y281000D03*
G01*
X1404035Y607999D03*
D13*
G01*
X2050440Y1257300D03*
G01*
X1900631Y1257300D03*
G01*
X2050440Y1040866D03*
G01*
X1900631Y1040866D03*
D14*
G01*
X-2393314Y876300D03*
D15*
G01*
X-2240813Y1023797D03*
G01*
X-2240813Y728802D03*
D16*
G01*
X795705Y1333500D03*
G01*
X795705Y1206500D03*
G01*
X795705Y1079500D03*
G01*
X795705Y952500D03*
G01*
X1377365Y952500D03*
G01*
X1377365Y1079500D03*
G01*
X1377365Y1206500D03*
G01*
X1377365Y1333500D03*
D18*
G01*
X1086535Y1143000D03*
D19*
G01*
X-82473Y1872995D03*
G01*
X-82473Y1778000D03*
G01*
X-82473Y1683004D03*
G01*
X147345Y1683004D03*
G01*
X147345Y1778000D03*
G01*
X147345Y1872995D03*
D20*
G01*
X-904570Y2120900D03*
G01*
X-1154556Y2120900D03*
D21*
G01*
X-1047064Y842695D03*
G01*
X-1047064Y452704D03*
D11*
G01*
X-666064Y1901088D03*
G01*
X-666064Y1985111D03*
D22*
G01*
X-87960Y731901D03*
G01*
X7035Y731901D03*
G01*
X102031Y731901D03*
G01*
X102031Y461898D03*
G01*
X7035Y461898D03*
G01*
X-87960Y461898D03*
D23*
G01*
X-1624660Y720013D03*
G01*
X-1624660Y804011D03*
D24*
G01*
X772947Y673100D03*
G01*
X688924Y673100D03*
D11*
G01*
X26085Y1405788D03*
G01*
X26085Y1489811D03*
G01*
X-920064Y2294788D03*
G01*
X-920064Y2378811D03*
G01*
X-1186764Y2307488D03*
G01*
X-1186764Y2391511D03*
D25*
G01*
X-462864Y1860397D03*
G01*
X-462864Y2000402D03*
G01*
X-666064Y1555597D03*
G01*
X-666064Y1695602D03*
D11*
G01*
X-666064Y1299311D03*
G01*
X-666064Y1215288D03*
D26*
G01*
X-583361Y825500D03*
G01*
X-723366Y825500D03*
G01*
X-583361Y469900D03*
G01*
X-723366Y469900D03*
D11*
G01*
X-1440764Y732688D03*
G01*
X-1440764Y816711D03*
D26*
G01*
X1054938Y2108200D03*
G01*
X914933Y2108200D03*
D11*
G01*
X299135Y592988D03*
G01*
X299135Y677011D03*
G01*
X-1809064Y804011D03*
G01*
X-1809064Y719988D03*
D27*
G01*
X1041831Y1882597D03*
G01*
X946835Y1882597D03*
G01*
X851839Y1882597D03*
G01*
X851839Y1622577D03*
G01*
X1041831Y1622577D03*
D28*
G01*
X1321739Y-161594D03*
G01*
X1511731Y-161594D03*
G01*
X1416735Y85394D03*
M02*
