G04 Layer: TopSolderMaskLayer*
G04 EasyEDA v6.5.57, 2026-07-01 10:19:50*
G04 9afaf0bdf17a4b4e94e635eba880ba3c,d0571c7098b8490b8d1055de96b6f153,10*
G04 Gerber Generator version 0.2*
G04 Scale: 100 percent, Rotated: No, Reflected: No *
G04 Dimensions in millimeters *
G04 leading zeros omitted , absolute positions ,4 integer and 5 decimal *
%FSLAX45Y45*%
%MOMM*%

%AMMACRO1*4,1,8,-0.8207,-0.85,-0.85,-0.8207,-0.85,0.8207,-0.8207,0.85,0.8207,0.85,0.85,0.8207,0.85,-0.8207,0.8207,-0.85,-0.8207,-0.85,0*%
%AMMACRO2*4,1,8,-0.4243,-0.4828,-0.454,-0.453,-0.454,0.4531,-0.4243,0.4828,0.4243,0.4828,0.454,0.4531,0.454,-0.453,0.4243,-0.4828,-0.4243,-0.4828,0*%
%AMMACRO3*4,1,8,-0.8707,-0.4,-0.9,-0.3707,-0.9,0.3708,-0.8707,0.4,0.8707,0.4,0.9,0.3708,0.9,-0.3707,0.8707,-0.4,-0.8707,-0.4,0*%
%AMMACRO4*4,1,8,-0.3039,-0.3208,-0.3336,-0.291,-0.3336,0.2911,-0.3039,0.3208,0.3038,0.3208,0.3336,0.2911,0.3336,-0.291,0.3038,-0.3208,-0.3039,-0.3208,0*%
%AMMACRO5*4,1,8,-0.2911,-0.3008,-0.3208,-0.271,-0.3208,0.2711,-0.2911,0.3008,0.291,0.3008,0.3208,0.2711,0.3208,-0.271,0.291,-0.3008,-0.2911,-0.3008,0*%
%AMMACRO6*4,1,8,-0.6211,-0.6508,-0.6508,-0.621,-0.6508,0.6211,-0.6211,0.6508,0.621,0.6508,0.6508,0.6211,0.6508,-0.621,0.621,-0.6508,-0.6211,-0.6508,0*%
%AMMACRO7*4,1,8,-0.7207,-0.75,-0.75,-0.7207,-0.75,0.7207,-0.7207,0.75,0.7207,0.75,0.75,0.7207,0.75,-0.7207,0.7207,-0.75,-0.7207,-0.75,0*%
%AMMACRO8*4,1,8,-0.8085,-0.8382,-0.8382,-0.8084,-0.8382,0.8085,-0.8085,0.8382,0.8084,0.8382,0.8382,0.8085,0.8382,-0.8084,0.8084,-0.8382,-0.8085,-0.8382,0*%
%AMMACRO9*4,1,8,-0.4211,-0.4508,-0.4508,-0.421,-0.4508,0.4211,-0.4211,0.4508,0.421,0.4508,0.4508,0.4211,0.4508,-0.421,0.421,-0.4508,-0.4211,-0.4508,0*%
%AMMACRO10*4,1,8,-0.2911,-0.3336,-0.3208,-0.3038,-0.3208,0.3039,-0.2911,0.3336,0.291,0.3336,0.3208,0.3039,0.3208,-0.3038,0.291,-0.3336,-0.2911,-0.3336,0*%
%AMMACRO11*4,1,8,-0.5457,-0.55,-0.575,-0.5207,-0.575,0.5207,-0.5457,0.55,0.5457,0.55,0.575,0.5207,0.575,-0.5207,0.5457,-0.55,-0.5457,-0.55,0*%
%AMMACRO12*4,1,8,-1.1207,-0.575,-1.15,-0.5457,-1.15,0.5457,-1.1207,0.575,1.1207,0.575,1.15,0.5457,1.15,-0.5457,1.1207,-0.575,-1.1207,-0.575,0*%
%AMMACRO13*4,1,8,-0.6211,-0.3508,-0.6508,-0.321,-0.6508,0.3211,-0.6211,0.3508,0.621,0.3508,0.6508,0.3211,0.6508,-0.321,0.621,-0.3508,-0.6211,-0.3508,0*%
%AMMACRO14*4,1,8,-1.2211,-1.7008,-1.2508,-1.671,-1.2508,1.6711,-1.2211,1.7008,1.221,1.7008,1.2508,1.6711,1.2508,-1.671,1.221,-1.7008,-1.2211,-1.7008,0*%
%AMMACRO15*4,1,8,-0.557,-0.3168,-0.5868,-0.287,-0.5868,0.287,-0.557,0.3168,0.557,0.3168,0.5868,0.287,0.5868,-0.287,0.557,-0.3168,-0.557,-0.3168,0*%
%AMMACRO16*4,1,8,-0.5207,-0.95,-0.55,-0.9207,-0.55,0.9207,-0.5207,0.95,0.5207,0.95,0.55,0.9207,0.55,-0.9207,0.5207,-0.95,-0.5207,-0.95,0*%
%AMMACRO17*4,1,8,-1.2211,-1.0008,-1.2508,-0.971,-1.2508,0.9711,-1.2211,1.0008,1.221,1.0008,1.2508,0.9711,1.2508,-0.971,1.221,-1.0008,-1.2211,-1.0008,0*%
%AMMACRO18*4,1,8,-0.3211,-0.601,-0.351,-0.5711,-0.351,0.5711,-0.3211,0.601,0.3211,0.601,0.351,0.5711,0.351,-0.5711,0.3211,-0.601,-0.3211,-0.601,0*%
%AMMACRO19*4,1,8,-2.3207,-2.35,-2.35,-2.3207,-2.35,2.3207,-2.3207,2.35,2.3207,2.35,2.35,2.3207,2.35,-2.3207,2.3207,-2.35,-2.3207,-2.35,0*%
%AMMACRO20*4,1,8,-0.2911,-0.3208,-0.3208,-0.291,-0.3208,0.291,-0.2911,0.3208,0.291,0.3208,0.3208,0.291,0.3208,-0.291,0.291,-0.3208,-0.2911,-0.3208,0*%
%AMMACRO21*4,1,8,-0.2911,-0.3208,-0.3208,-0.291,-0.3208,0.2911,-0.2911,0.3208,0.291,0.3208,0.3208,0.2911,0.3208,-0.291,0.291,-0.3208,-0.2911,-0.3208,0*%
%AMMACRO22*4,1,8,-0.4711,-0.8508,-0.5008,-0.821,-0.5008,0.8211,-0.4711,0.8508,0.471,0.8508,0.5008,0.8211,0.5008,-0.821,0.471,-0.8508,-0.4711,-0.8508,0*%
%AMMACRO23*4,1,8,-0.4211,-0.8508,-0.4508,-0.821,-0.4508,0.8211,-0.4211,0.8508,0.421,0.8508,0.4508,0.8211,0.4508,-0.821,0.421,-0.8508,-0.4211,-0.8508,0*%
%AMMACRO24*4,1,8,-0.3711,-0.8508,-0.4008,-0.821,-0.4008,0.8211,-0.3711,0.8508,0.371,0.8508,0.4008,0.8211,0.4008,-0.821,0.371,-0.8508,-0.3711,-0.8508,0*%
%AMMACRO25*4,1,8,-1.0211,-0.5508,-1.0508,-0.521,-1.0508,0.5211,-1.0211,0.5508,1.021,0.5508,1.0508,0.5211,1.0508,-0.521,1.021,-0.5508,-1.0211,-0.5508,0*%
%AMMACRO26*4,1,8,-0.2711,-0.3208,-0.3008,-0.291,-0.3008,0.2911,-0.2711,0.3208,0.271,0.3208,0.3008,0.2911,0.3008,-0.291,0.271,-0.3208,-0.2711,-0.3208,0*%
%AMMACRO27*4,1,8,-0.4711,-0.4508,-0.5008,-0.421,-0.5008,0.4211,-0.4711,0.4508,0.471,0.4508,0.5008,0.4211,0.5008,-0.421,0.471,-0.4508,-0.4711,-0.4508,0*%
%AMMACRO28*4,1,8,-0.4211,-0.5008,-0.4508,-0.471,-0.4508,0.4711,-0.4211,0.5008,0.421,0.5008,0.4508,0.4711,0.4508,-0.471,0.421,-0.5008,-0.4211,-0.5008,0*%
%AMMACRO29*4,1,8,-0.4531,-0.454,-0.4828,-0.4243,-0.4828,0.4243,-0.4531,0.454,0.453,0.454,0.4828,0.4243,0.4828,-0.4243,0.453,-0.454,-0.4531,-0.454,0*%
%AMMACRO30*4,1,8,-0.3211,-0.5508,-0.3508,-0.521,-0.3508,0.5211,-0.3211,0.5508,0.321,0.5508,0.3508,0.5211,0.3508,-0.521,0.321,-0.5508,-0.3211,-0.5508,0*%
%AMMACRO31*4,1,8,-0.3211,-0.5858,-0.3508,-0.556,-0.3508,0.5561,-0.3211,0.5858,0.321,0.5858,0.3508,0.5561,0.3508,-0.556,0.321,-0.5858,-0.3211,-0.5858,0*%
%ADD10C,1.2016*%
%ADD11MACRO1*%
%ADD12C,1.7000*%
%ADD13MACRO2*%
%ADD14MACRO3*%
%ADD15C,1.6016*%
%ADD16C,1.9000*%
%ADD17MACRO4*%
%ADD18C,0.0122*%
%ADD19MACRO5*%
%ADD20MACRO6*%
%ADD21C,1.5000*%
%ADD22MACRO7*%
%ADD23MACRO8*%
%ADD24MACRO9*%
%ADD25MACRO10*%
%ADD26MACRO11*%
%ADD27MACRO12*%
%ADD28MACRO13*%
%ADD29MACRO14*%
%ADD30MACRO15*%
%ADD31MACRO16*%
%ADD32MACRO17*%
%ADD33MACRO18*%
%ADD34O,0.300025X1.050036*%
%ADD35O,1.050036X0.300025*%
%ADD36MACRO19*%
%ADD37MACRO20*%
%ADD38MACRO21*%
%ADD39MACRO22*%
%ADD40MACRO23*%
%ADD41MACRO24*%
%ADD42MACRO25*%
%ADD43O,1.101598X1.701597*%
%ADD44MACRO26*%
%ADD45MACRO27*%
%ADD46MACRO28*%
%ADD47MACRO29*%
%ADD48MACRO30*%
%ADD49MACRO31*%

%LPD*%
D10*
G01*
X457200Y-279400D03*
G01*
X330200Y-279400D03*
G01*
X76200Y-279400D03*
G01*
X-50800Y-279400D03*
D11*
G01*
X2387600Y711200D03*
D12*
G01*
X2387600Y965200D03*
G01*
X2387600Y1219200D03*
G01*
X2387600Y1473200D03*
G01*
X2387600Y1727200D03*
G01*
X2387600Y1981200D03*
G01*
X2387600Y2235200D03*
G01*
X2387600Y2489200D03*
D13*
G01*
X26275Y-12700D03*
G01*
X176924Y-12700D03*
D14*
G01*
X-964664Y-467094D03*
G01*
X-1424665Y-467094D03*
G01*
X-1424665Y-117095D03*
D15*
G01*
X229336Y2692400D03*
G01*
X429336Y2692400D03*
G01*
X2297836Y290499D03*
G01*
X2297836Y90500D03*
D16*
G01*
X-318338Y2861106D03*
G01*
X-468375Y2676093D03*
G01*
X-168351Y2676093D03*
D17*
G01*
X-1568146Y2298700D03*
G01*
X-1481580Y2298700D03*
D19*
G01*
X-1955800Y1705700D03*
G01*
X-1955800Y1621699D03*
D20*
G01*
X1404035Y281000D03*
G01*
X1404035Y607999D03*
D21*
G01*
X-1307363Y2806700D03*
D22*
G01*
X-707363Y2806698D03*
D21*
G01*
X-907364Y2806700D03*
G01*
X-1107363Y2806700D03*
G01*
X-1507362Y2806700D03*
G01*
X-1707362Y2806700D03*
D23*
G01*
X-2223363Y1841500D03*
G01*
X-2050364Y2184400D03*
D24*
G01*
X2050435Y1257310D03*
G01*
X1900626Y1257294D03*
G01*
X2050435Y1040871D03*
G01*
X1900626Y1040856D03*
D17*
G01*
X1675918Y1257838D03*
G01*
X1589352Y1257838D03*
D25*
G01*
X-843864Y-271882D03*
G01*
X-843864Y-185317D03*
D26*
G01*
X-2393312Y876300D03*
D27*
G01*
X-2240826Y1023800D03*
G01*
X-2240826Y728799D03*
D28*
G01*
X795705Y1333500D03*
G01*
X795705Y1206500D03*
G01*
X795705Y1079500D03*
G01*
X795705Y952500D03*
G01*
X1377365Y952500D03*
G01*
X1377365Y1079500D03*
G01*
X1377365Y1206500D03*
G01*
X1377365Y1333500D03*
D29*
G01*
X1086535Y1142998D03*
D25*
G01*
X184835Y1404517D03*
G01*
X184835Y1491082D03*
D30*
G01*
X-82473Y1872996D03*
G01*
X-82473Y1778000D03*
G01*
X-82473Y1683003D03*
G01*
X147345Y1683003D03*
G01*
X147345Y1778000D03*
G01*
X147345Y1872996D03*
D31*
G01*
X-904562Y2120900D03*
G01*
X-1154564Y2120900D03*
D32*
G01*
X-1047064Y842695D03*
G01*
X-1047064Y452704D03*
D19*
G01*
X-666064Y1901099D03*
G01*
X-666064Y1985100D03*
D33*
G01*
X-87960Y731907D03*
G01*
X7035Y731907D03*
G01*
X102031Y731907D03*
G01*
X102031Y461896D03*
G01*
X7035Y461896D03*
G01*
X-87960Y461896D03*
D17*
G01*
X1688618Y1041400D03*
G01*
X1602052Y1041400D03*
G01*
X1129818Y0D03*
G01*
X1043252Y0D03*
D34*
G01*
X-1081074Y1823999D03*
G01*
X-1121079Y1823999D03*
G01*
X-1161059Y1823999D03*
G01*
X-1201064Y1823999D03*
G01*
X-1241069Y1823999D03*
G01*
X-1281074Y1823999D03*
G01*
X-1321079Y1823999D03*
G01*
X-1361059Y1823999D03*
G01*
X-1401063Y1823999D03*
G01*
X-1441069Y1823999D03*
G01*
X-1481073Y1823999D03*
G01*
X-1521078Y1823999D03*
G01*
X-1521078Y1224000D03*
G01*
X-1481073Y1224000D03*
G01*
X-1441069Y1224000D03*
G01*
X-1401063Y1224000D03*
G01*
X-1361059Y1224000D03*
G01*
X-1321079Y1224000D03*
G01*
X-1281074Y1224000D03*
G01*
X-1241069Y1224000D03*
G01*
X-1201064Y1224000D03*
G01*
X-1161059Y1224000D03*
G01*
X-1121079Y1224000D03*
G01*
X-1081074Y1224000D03*
D35*
G01*
X-1001064Y1744014D03*
G01*
X-1001064Y1704009D03*
G01*
X-1001064Y1664004D03*
G01*
X-1001064Y1623999D03*
G01*
X-1001064Y1583994D03*
G01*
X-1001064Y1544015D03*
G01*
X-1001064Y1504010D03*
G01*
X-1001064Y1464005D03*
G01*
X-1001064Y1424000D03*
G01*
X-1001064Y1383995D03*
G01*
X-1001064Y1344015D03*
G01*
X-1001064Y1304010D03*
G01*
X-1601063Y1304010D03*
G01*
X-1601063Y1344015D03*
G01*
X-1601063Y1383995D03*
G01*
X-1601063Y1424000D03*
G01*
X-1601063Y1464005D03*
G01*
X-1601063Y1504010D03*
G01*
X-1601063Y1544015D03*
G01*
X-1601063Y1583994D03*
G01*
X-1601063Y1623999D03*
G01*
X-1601063Y1664004D03*
G01*
X-1601063Y1704009D03*
G01*
X-1601063Y1744014D03*
D36*
G01*
X-1300932Y1523867D03*
D37*
G01*
X-1624667Y720007D03*
D38*
G01*
X-1624667Y804006D03*
D39*
G01*
X1602837Y2458349D03*
D40*
G01*
X1479837Y2458349D03*
D41*
G01*
X1377836Y2458349D03*
G01*
X1277837Y2458349D03*
D40*
G01*
X1175839Y2458349D03*
D39*
G01*
X1052836Y2458349D03*
D42*
G01*
X1859833Y2508349D03*
G01*
X795832Y2508349D03*
D43*
G01*
X895832Y2901061D03*
G01*
X1759838Y2888361D03*
D25*
G01*
X-170764Y1404517D03*
G01*
X-170764Y1491082D03*
G01*
X603935Y1186282D03*
G01*
X603935Y1099717D03*
D44*
G01*
X772935Y673100D03*
G01*
X688935Y673100D03*
D19*
G01*
X26080Y1405799D03*
G01*
X26080Y1489800D03*
G01*
X-920064Y2294799D03*
G01*
X-920064Y2378800D03*
G01*
X-1186764Y2307499D03*
G01*
X-1186764Y2391500D03*
D45*
G01*
X-462864Y1860400D03*
G01*
X-462864Y2000399D03*
G01*
X-666064Y1555600D03*
G01*
X-666064Y1695599D03*
D19*
G01*
X-666064Y1299300D03*
G01*
X-666064Y1215299D03*
D46*
G01*
X-583364Y825500D03*
G01*
X-723364Y825500D03*
G01*
X-583364Y469900D03*
G01*
X-723364Y469900D03*
D19*
G01*
X-1440764Y732699D03*
G01*
X-1440764Y816700D03*
D46*
G01*
X1054935Y2108200D03*
G01*
X914935Y2108200D03*
D19*
G01*
X299135Y592999D03*
G01*
X299135Y677000D03*
G01*
X-1809064Y804000D03*
G01*
X-1809064Y719999D03*
D17*
G01*
X1421918Y2108200D03*
G01*
X1335352Y2108200D03*
G01*
X1688618Y2108200D03*
G01*
X1602052Y2108200D03*
D47*
G01*
X-1669364Y-204075D03*
G01*
X-1669364Y-354724D03*
D17*
G01*
X1043252Y-165100D03*
G01*
X1129818Y-165100D03*
D48*
G01*
X1041831Y1882609D03*
G01*
X946835Y1882609D03*
G01*
X851839Y1882609D03*
G01*
X851839Y1622590D03*
G01*
X1041831Y1622590D03*
D49*
G01*
X1321739Y-161599D03*
G01*
X1511731Y-161599D03*
G01*
X1416735Y85399D03*
M02*
